# MagicaVoxel @ Ephtracy

# group
o 

# material
mtllib untitled.mtl
usemtl palette

# normals
vn -1 0 0
vn 1 0 0
vn 0 0 1
vn 0 0 -1
vn 0 -1 0
vn 0 1 0

# texcoords
vt 0.0332031 0.5
vt 0.0371094 0.5

# verts
v 0 2.2 0
v 0 2.2 -0.7
v 0 2.3 -0.5
v 0 2.3 -0.7
v 0 2.4 0
v 0 2.4 -0.5
v 0 2.4 -0.6
v 0 2.5 -0.4
v 0 2.5 -0.5
v 0 2.6 -0.4
v 0 2.6 -0.6
v 0.1 2 -0.1
v 0.1 2 -0.2
v 0.1 2 -0.5
v 0.1 2 -0.6
v 0.1 2.2 -0.1
v 0.1 2.2 -0.2
v 0.1 2.2 -0.5
v 0.1 2.2 -0.6
v 0.1 2.3 -0.5
v 0.1 2.3 -0.6
v 0.1 2.4 -0.5
v 0.1 2.4 -0.6
v 0.1 2.6 -0.5
v 0.1 2.6 -0.6
v 0.1 2.7 -0.5
v 0.1 2.7 -0.6
v 0.2 2.4 -0.4
v 0.2 2.4 -0.5
v 0.2 2.5 -0.4
v 0.2 2.5 -0.5
v 0.8 2 -0.1
v 0.8 2 -0.2
v 0.8 2 -0.5
v 0.8 2 -0.6
v 0.8 2.2 -0.1
v 0.8 2.2 -0.2
v 0.8 2.2 -0.5
v 0.8 2.2 -0.6
v 0.8 2.3 -0.5
v 0.8 2.3 -0.6
v 0.8 2.4 -0.5
v 0.8 2.4 -0.6
v 0.8 2.6 -0.5
v 0.8 2.6 -0.6
v 0.8 2.7 -0.5
v 0.8 2.7 -0.6
v 0.9 2.3 0
v 0.9 2.3 -0.5
v 0.9 2.4 0
v 0.9 2.4 -0.5
v 0.1 2.3 0
v 0.1 2.3 -0.5
v 0.1 2.4 0
v 0.1 2.4 -0.5
v 0.2 2 -0.1
v 0.2 2 -0.2
v 0.2 2 -0.5
v 0.2 2 -0.6
v 0.2 2.2 -0.1
v 0.2 2.2 -0.2
v 0.2 2.2 -0.5
v 0.2 2.2 -0.6
v 0.2 2.3 -0.5
v 0.2 2.3 -0.6
v 0.2 2.4 -0.5
v 0.2 2.4 -0.6
v 0.2 2.6 -0.5
v 0.2 2.6 -0.6
v 0.2 2.7 -0.5
v 0.2 2.7 -0.6
v 0.8 2.4 -0.4
v 0.8 2.4 -0.5
v 0.8 2.5 -0.4
v 0.8 2.5 -0.5
v 0.9 2 -0.1
v 0.9 2 -0.2
v 0.9 2 -0.5
v 0.9 2 -0.6
v 0.9 2.2 -0.1
v 0.9 2.2 -0.2
v 0.9 2.2 -0.5
v 0.9 2.2 -0.6
v 0.9 2.3 -0.5
v 0.9 2.3 -0.6
v 0.9 2.4 -0.5
v 0.9 2.4 -0.6
v 0.9 2.6 -0.5
v 0.9 2.6 -0.6
v 0.9 2.7 -0.5
v 0.9 2.7 -0.6
v 1 2.2 0
v 1 2.2 -0.7
v 1 2.3 -0.5
v 1 2.3 -0.7
v 1 2.4 0
v 1 2.4 -0.5
v 1 2.4 -0.6
v 1 2.5 -0.4
v 1 2.5 -0.5
v 1 2.6 -0.4
v 1 2.6 -0.6
v 0 2.2 0
v 0 2.4 0
v 0.1 2.3 0
v 0.1 2.4 0
v 0.9 2.3 0
v 0.9 2.4 0
v 1 2.2 0
v 1 2.4 0
v 0.1 2 -0.1
v 0.1 2.2 -0.1
v 0.2 2 -0.1
v 0.2 2.2 -0.1
v 0.8 2 -0.1
v 0.8 2.2 -0.1
v 0.9 2 -0.1
v 0.9 2.2 -0.1
v 0 2.5 -0.4
v 0 2.6 -0.4
v 0.2 2.4 -0.4
v 0.2 2.5 -0.4
v 0.8 2.4 -0.4
v 0.8 2.5 -0.4
v 1 2.5 -0.4
v 1 2.6 -0.4
v 0 2.4 -0.5
v 0 2.5 -0.5
v 0.1 2 -0.5
v 0.1 2.2 -0.5
v 0.1 2.3 -0.5
v 0.1 2.4 -0.5
v 0.1 2.5 -0.5
v 0.1 2.6 -0.5
v 0.1 2.7 -0.5
v 0.2 2 -0.5
v 0.2 2.2 -0.5
v 0.2 2.3 -0.5
v 0.2 2.4 -0.5
v 0.2 2.5 -0.5
v 0.2 2.6 -0.5
v 0.2 2.7 -0.5
v 0.8 2 -0.5
v 0.8 2.2 -0.5
v 0.8 2.3 -0.5
v 0.8 2.4 -0.5
v 0.8 2.5 -0.5
v 0.8 2.6 -0.5
v 0.8 2.7 -0.5
v 0.9 2 -0.5
v 0.9 2.2 -0.5
v 0.9 2.3 -0.5
v 0.9 2.4 -0.5
v 0.9 2.5 -0.5
v 0.9 2.6 -0.5
v 0.9 2.7 -0.5
v 1 2.4 -0.5
v 1 2.5 -0.5
v 0.1 2 -0.2
v 0.1 2.2 -0.2
v 0.2 2 -0.2
v 0.2 2.2 -0.2
v 0.8 2 -0.2
v 0.8 2.2 -0.2
v 0.9 2 -0.2
v 0.9 2.2 -0.2
v 0 2.3 -0.5
v 0 2.4 -0.5
v 0.1 2.3 -0.5
v 0.1 2.4 -0.5
v 0.9 2.3 -0.5
v 0.9 2.4 -0.5
v 1 2.3 -0.5
v 1 2.4 -0.5
v 0 2.4 -0.6
v 0 2.6 -0.6
v 0.1 2 -0.6
v 0.1 2.2 -0.6
v 0.1 2.3 -0.6
v 0.1 2.4 -0.6
v 0.1 2.6 -0.6
v 0.1 2.7 -0.6
v 0.2 2 -0.6
v 0.2 2.2 -0.6
v 0.2 2.3 -0.6
v 0.2 2.4 -0.6
v 0.2 2.6 -0.6
v 0.2 2.7 -0.6
v 0.8 2 -0.6
v 0.8 2.2 -0.6
v 0.8 2.3 -0.6
v 0.8 2.4 -0.6
v 0.8 2.6 -0.6
v 0.8 2.7 -0.6
v 0.9 2 -0.6
v 0.9 2.2 -0.6
v 0.9 2.3 -0.6
v 0.9 2.4 -0.6
v 0.9 2.6 -0.6
v 0.9 2.7 -0.6
v 1 2.4 -0.6
v 1 2.6 -0.6
v 0 2.2 -0.7
v 0 2.3 -0.7
v 1 2.2 -0.7
v 1 2.3 -0.7
v 0.1 2 -0.1
v 0.2 2 -0.1
v 0.8 2 -0.1
v 0.9 2 -0.1
v 0.1 2 -0.2
v 0.2 2 -0.2
v 0.8 2 -0.2
v 0.9 2 -0.2
v 0.1 2 -0.5
v 0.2 2 -0.5
v 0.8 2 -0.5
v 0.9 2 -0.5
v 0.1 2 -0.6
v 0.2 2 -0.6
v 0.8 2 -0.6
v 0.9 2 -0.6
v 0 2.2 0
v 1 2.2 0
v 0.1 2.2 -0.1
v 0.2 2.2 -0.1
v 0.8 2.2 -0.1
v 0.9 2.2 -0.1
v 0.1 2.2 -0.2
v 0.2 2.2 -0.2
v 0.8 2.2 -0.2
v 0.9 2.2 -0.2
v 0.1 2.2 -0.5
v 0.2 2.2 -0.5
v 0.8 2.2 -0.5
v 0.9 2.2 -0.5
v 0.1 2.2 -0.6
v 0.2 2.2 -0.6
v 0.8 2.2 -0.6
v 0.9 2.2 -0.6
v 0 2.2 -0.7
v 1 2.2 -0.7
v 0.2 2.4 -0.4
v 0.8 2.4 -0.4
v 0 2.4 -0.5
v 0.1 2.4 -0.5
v 0.2 2.4 -0.5
v 0.8 2.4 -0.5
v 0.9 2.4 -0.5
v 1 2.4 -0.5
v 0 2.4 -0.6
v 0.1 2.4 -0.6
v 0.2 2.4 -0.6
v 0.8 2.4 -0.6
v 0.9 2.4 -0.6
v 1 2.4 -0.6
v 0 2.5 -0.4
v 0.2 2.5 -0.4
v 0.8 2.5 -0.4
v 1 2.5 -0.4
v 0 2.5 -0.5
v 0.1 2.5 -0.5
v 0.2 2.5 -0.5
v 0.8 2.5 -0.5
v 0.9 2.5 -0.5
v 1 2.5 -0.5
v 0.1 2.3 0
v 0.9 2.3 0
v 0 2.3 -0.5
v 0.1 2.3 -0.5
v 0.2 2.3 -0.5
v 0.8 2.3 -0.5
v 0.9 2.3 -0.5
v 1 2.3 -0.5
v 0.1 2.3 -0.6
v 0.2 2.3 -0.6
v 0.8 2.3 -0.6
v 0.9 2.3 -0.6
v 0 2.3 -0.7
v 1 2.3 -0.7
v 0 2.4 0
v 0.1 2.4 0
v 0.9 2.4 0
v 1 2.4 0
v 0 2.4 -0.5
v 0.1 2.4 -0.5
v 0.9 2.4 -0.5
v 1 2.4 -0.5
v 0 2.6 -0.4
v 1 2.6 -0.4
v 0.1 2.6 -0.5
v 0.2 2.6 -0.5
v 0.8 2.6 -0.5
v 0.9 2.6 -0.5
v 0 2.6 -0.6
v 0.1 2.6 -0.6
v 0.2 2.6 -0.6
v 0.8 2.6 -0.6
v 0.9 2.6 -0.6
v 1 2.6 -0.6
v 0.1 2.7 -0.5
v 0.2 2.7 -0.5
v 0.8 2.7 -0.5
v 0.9 2.7 -0.5
v 0.1 2.7 -0.6
v 0.2 2.7 -0.6
v 0.8 2.7 -0.6
v 0.9 2.7 -0.6

# faces
f 3/2/1 2/2/1 1/2/1
f 4/2/1 2/2/1 3/2/1
f 5/2/1 3/2/1 1/2/1
f 6/2/1 3/2/1 5/2/1
f 9/2/1 7/2/1 6/2/1
f 10/2/1 9/2/1 8/2/1
f 11/2/1 7/2/1 9/2/1
f 11/2/1 9/2/1 10/2/1
f 16/1/1 13/1/1 12/1/1
f 17/1/1 13/1/1 16/1/1
f 18/1/1 15/1/1 14/1/1
f 19/1/1 15/1/1 18/1/1
f 22/1/1 21/1/1 20/1/1
f 23/1/1 21/1/1 22/1/1
f 26/1/1 25/1/1 24/1/1
f 27/1/1 25/1/1 26/1/1
f 30/2/1 29/2/1 28/2/1
f 31/2/1 29/2/1 30/2/1
f 36/1/1 33/1/1 32/1/1
f 37/1/1 33/1/1 36/1/1
f 38/1/1 35/1/1 34/1/1
f 39/1/1 35/1/1 38/1/1
f 42/1/1 41/1/1 40/1/1
f 43/1/1 41/1/1 42/1/1
f 46/1/1 45/1/1 44/1/1
f 47/1/1 45/1/1 46/1/1
f 50/2/1 49/2/1 48/2/1
f 51/2/1 49/2/1 50/2/1
f 52/2/2 53/2/2 54/2/2
f 54/2/2 53/2/2 55/2/2
f 56/1/2 57/1/2 60/1/2
f 60/1/2 57/1/2 61/1/2
f 58/1/2 59/1/2 62/1/2
f 62/1/2 59/1/2 63/1/2
f 64/1/2 65/1/2 66/1/2
f 66/1/2 65/1/2 67/1/2
f 68/1/2 69/1/2 70/1/2
f 70/1/2 69/1/2 71/1/2
f 72/2/2 73/2/2 74/2/2
f 74/2/2 73/2/2 75/2/2
f 76/1/2 77/1/2 80/1/2
f 80/1/2 77/1/2 81/1/2
f 78/1/2 79/1/2 82/1/2
f 82/1/2 79/1/2 83/1/2
f 84/1/2 85/1/2 86/1/2
f 86/1/2 85/1/2 87/1/2
f 88/1/2 89/1/2 90/1/2
f 90/1/2 89/1/2 91/1/2
f 92/2/2 93/2/2 94/2/2
f 94/2/2 93/2/2 95/2/2
f 92/2/2 94/2/2 96/2/2
f 96/2/2 94/2/2 97/2/2
f 97/2/2 98/2/2 100/2/2
f 99/2/2 100/2/2 101/2/2
f 100/2/2 98/2/2 102/2/2
f 101/2/2 100/2/2 102/2/2
f 105/2/3 104/2/3 103/2/3
f 106/2/3 104/2/3 105/2/3
f 107/2/3 105/2/3 103/2/3
f 109/2/3 107/2/3 103/2/3
f 109/2/3 108/2/3 107/2/3
f 110/2/3 108/2/3 109/2/3
f 113/1/3 112/1/3 111/1/3
f 114/1/3 112/1/3 113/1/3
f 117/1/3 116/1/3 115/1/3
f 118/1/3 116/1/3 117/1/3
f 122/2/3 120/2/3 119/2/3
f 123/2/3 122/2/3 121/2/3
f 124/2/3 120/2/3 122/2/3
f 124/2/3 122/2/3 123/2/3
f 125/2/3 120/2/3 124/2/3
f 126/2/3 120/2/3 125/2/3
f 132/2/3 128/2/3 127/2/3
f 133/2/3 128/2/3 132/2/3
f 136/1/3 130/1/3 129/1/3
f 137/1/3 130/1/3 136/1/3
f 138/1/3 132/1/3 131/1/3
f 138/1/3 133/1/3 132/1/3
f 139/1/3 133/1/3 138/1/3
f 140/1/3 133/1/3 139/1/3
f 141/1/3 135/1/3 134/1/3
f 142/1/3 135/1/3 141/1/3
f 150/1/3 144/1/3 143/1/3
f 151/1/3 144/1/3 150/1/3
f 152/1/3 146/1/3 145/1/3
f 152/1/3 147/1/3 146/1/3
f 153/1/3 147/1/3 152/1/3
f 154/1/3 147/1/3 153/1/3
f 155/1/3 149/1/3 148/1/3
f 156/1/3 149/1/3 155/1/3
f 157/2/3 154/2/3 153/2/3
f 158/2/3 154/2/3 157/2/3
f 159/1/4 160/1/4 161/1/4
f 161/1/4 160/1/4 162/1/4
f 163/1/4 164/1/4 165/1/4
f 165/1/4 164/1/4 166/1/4
f 167/2/4 168/2/4 169/2/4
f 169/2/4 168/2/4 170/2/4
f 171/2/4 172/2/4 173/2/4
f 173/2/4 172/2/4 174/2/4
f 175/2/4 176/2/4 180/2/4
f 180/2/4 176/2/4 181/2/4
f 177/1/4 178/1/4 183/1/4
f 183/1/4 178/1/4 184/1/4
f 181/1/4 182/1/4 185/1/4
f 179/1/4 180/1/4 185/1/4
f 180/1/4 181/1/4 185/1/4
f 185/1/4 182/1/4 186/1/4
f 186/1/4 182/1/4 187/1/4
f 187/1/4 182/1/4 188/1/4
f 186/2/4 187/2/4 192/2/4
f 192/2/4 187/2/4 193/2/4
f 189/1/4 190/1/4 195/1/4
f 195/1/4 190/1/4 196/1/4
f 193/1/4 194/1/4 197/1/4
f 191/1/4 192/1/4 197/1/4
f 192/1/4 193/1/4 197/1/4
f 197/1/4 194/1/4 198/1/4
f 198/1/4 194/1/4 199/1/4
f 199/1/4 194/1/4 200/1/4
f 198/2/4 199/2/4 201/2/4
f 201/2/4 199/2/4 202/2/4
f 203/2/4 204/2/4 205/2/4
f 205/2/4 204/2/4 206/2/4
f 211/1/5 208/1/5 207/1/5
f 212/1/5 208/1/5 211/1/5
f 213/1/5 210/1/5 209/1/5
f 214/1/5 210/1/5 213/1/5
f 219/1/5 216/1/5 215/1/5
f 220/1/5 216/1/5 219/1/5
f 221/1/5 218/1/5 217/1/5
f 222/1/5 218/1/5 221/1/5
f 225/2/5 224/2/5 223/2/5
f 226/2/5 224/2/5 225/2/5
f 227/2/5 224/2/5 226/2/5
f 228/2/5 224/2/5 227/2/5
f 229/2/5 225/2/5 223/2/5
f 230/2/5 227/2/5 226/2/5
f 231/2/5 227/2/5 230/2/5
f 232/2/5 224/2/5 228/2/5
f 233/2/5 231/2/5 230/2/5
f 233/2/5 232/2/5 231/2/5
f 233/2/5 229/2/5 223/2/5
f 233/2/5 230/2/5 229/2/5
f 234/2/5 232/2/5 233/2/5
f 235/2/5 232/2/5 234/2/5
f 236/2/5 224/2/5 232/2/5
f 236/2/5 232/2/5 235/2/5
f 237/2/5 233/2/5 223/2/5
f 238/2/5 235/2/5 234/2/5
f 239/2/5 235/2/5 238/2/5
f 240/2/5 224/2/5 236/2/5
f 241/2/5 237/2/5 223/2/5
f 241/2/5 240/2/5 239/2/5
f 241/2/5 239/2/5 238/2/5
f 241/2/5 238/2/5 237/2/5
f 242/2/5 224/2/5 240/2/5
f 242/2/5 240/2/5 241/2/5
f 247/2/5 244/2/5 243/2/5
f 248/2/5 244/2/5 247/2/5
f 251/2/5 246/2/5 245/2/5
f 252/2/5 246/2/5 251/2/5
f 253/2/5 248/2/5 247/2/5
f 254/2/5 248/2/5 253/2/5
f 255/2/5 250/2/5 249/2/5
f 256/2/5 250/2/5 255/2/5
f 261/2/5 258/2/5 257/2/5
f 262/2/5 258/2/5 261/2/5
f 263/2/5 258/2/5 262/2/5
f 264/2/5 260/2/5 259/2/5
f 265/2/5 260/2/5 264/2/5
f 266/2/5 260/2/5 265/2/5
f 267/2/6 268/2/6 270/2/6
f 270/2/6 268/2/6 271/2/6
f 271/2/6 268/2/6 272/2/6
f 272/2/6 268/2/6 273/2/6
f 269/2/6 270/2/6 275/2/6
f 271/2/6 272/2/6 276/2/6
f 276/2/6 272/2/6 277/2/6
f 273/2/6 274/2/6 278/2/6
f 276/2/6 277/2/6 279/2/6
f 277/2/6 278/2/6 279/2/6
f 269/2/6 275/2/6 279/2/6
f 275/2/6 276/2/6 279/2/6
f 278/2/6 274/2/6 280/2/6
f 279/2/6 278/2/6 280/2/6
f 281/2/6 282/2/6 285/2/6
f 285/2/6 282/2/6 286/2/6
f 283/2/6 284/2/6 287/2/6
f 287/2/6 284/2/6 288/2/6
f 289/2/6 290/2/6 291/2/6
f 291/2/6 290/2/6 292/2/6
f 292/2/6 290/2/6 293/2/6
f 293/2/6 290/2/6 294/2/6
f 289/2/6 291/2/6 295/2/6
f 295/2/6 291/2/6 296/2/6
f 292/2/6 293/2/6 297/2/6
f 297/2/6 293/2/6 298/2/6
f 294/2/6 290/2/6 299/2/6
f 299/2/6 290/2/6 300/2/6
f 301/1/6 302/1/6 305/1/6
f 305/1/6 302/1/6 306/1/6
f 303/1/6 304/1/6 307/1/6
f 307/1/6 304/1/6 308/1/6
