# MagicaVoxel @ Ephtracy

# group
o 

# material
mtllib untitled.mtl
usemtl palette

# normals
vn -1 0 0
vn 1 0 0
vn 0 0 1
vn 0 0 -1
vn 0 -1 0
vn 0 1 0

# texcoords
vt 0.978516 0.5
vt 0.982422 0.5

# verts
v 0 2 0
v 0 2 -0.1
v 0 2 -0.2
v 0 2 -0.3
v 0 2 -0.4
v 0 2 -0.5
v 0 2.7 0
v 0 2.7 -0.1
v 0 2.7 -0.2
v 0 2.7 -0.3
v 0 2.7 -0.4
v 0 2.7 -0.5
v 0.4 2.3 -0.1
v 0.4 2.3 -0.2
v 0.4 2.3 -0.3
v 0.4 2.3 -0.4
v 0.4 2.7 -0.1
v 0.4 2.7 -0.2
v 0.4 2.7 -0.3
v 0.4 2.7 -0.4
v 0.1 2.3 -0.1
v 0.1 2.3 -0.2
v 0.1 2.3 -0.3
v 0.1 2.3 -0.4
v 0.1 2.7 -0.1
v 0.1 2.7 -0.2
v 0.1 2.7 -0.3
v 0.1 2.7 -0.4
v 0.5 2 0
v 0.5 2 -0.1
v 0.5 2 -0.2
v 0.5 2 -0.3
v 0.5 2 -0.4
v 0.5 2 -0.5
v 0.5 2.7 0
v 0.5 2.7 -0.1
v 0.5 2.7 -0.2
v 0.5 2.7 -0.3
v 0.5 2.7 -0.4
v 0.5 2.7 -0.5
v 0 2 0
v 0 2.7 0
v 0.1 2 0
v 0.1 2.7 0
v 0.2 2 0
v 0.2 2.7 0
v 0.3 2 0
v 0.3 2.7 0
v 0.4 2 0
v 0.4 2.7 0
v 0.5 2 0
v 0.5 2.7 0
v 0.1 2.3 -0.4
v 0.1 2.7 -0.4
v 0.2 2.3 -0.4
v 0.2 2.7 -0.4
v 0.3 2.3 -0.4
v 0.3 2.7 -0.4
v 0.4 2.3 -0.4
v 0.4 2.7 -0.4
v 0.1 2.3 -0.1
v 0.1 2.7 -0.1
v 0.2 2.3 -0.1
v 0.2 2.7 -0.1
v 0.3 2.3 -0.1
v 0.3 2.7 -0.1
v 0.4 2.3 -0.1
v 0.4 2.7 -0.1
v 0 2 -0.5
v 0 2.7 -0.5
v 0.1 2 -0.5
v 0.1 2.7 -0.5
v 0.2 2 -0.5
v 0.2 2.7 -0.5
v 0.3 2 -0.5
v 0.3 2.7 -0.5
v 0.4 2 -0.5
v 0.4 2.7 -0.5
v 0.5 2 -0.5
v 0.5 2.7 -0.5
v 0 2 0
v 0.1 2 0
v 0.2 2 0
v 0.3 2 0
v 0.4 2 0
v 0.5 2 0
v 0 2 -0.1
v 0.1 2 -0.1
v 0.2 2 -0.1
v 0.3 2 -0.1
v 0.4 2 -0.1
v 0.5 2 -0.1
v 0 2 -0.2
v 0.1 2 -0.2
v 0.4 2 -0.2
v 0.5 2 -0.2
v 0 2 -0.3
v 0.1 2 -0.3
v 0.4 2 -0.3
v 0.5 2 -0.3
v 0 2 -0.4
v 0.1 2 -0.4
v 0.2 2 -0.4
v 0.3 2 -0.4
v 0.4 2 -0.4
v 0.5 2 -0.4
v 0 2 -0.5
v 0.1 2 -0.5
v 0.2 2 -0.5
v 0.3 2 -0.5
v 0.4 2 -0.5
v 0.5 2 -0.5
v 0.1 2.3 -0.1
v 0.2 2.3 -0.1
v 0.3 2.3 -0.1
v 0.4 2.3 -0.1
v 0.1 2.3 -0.2
v 0.4 2.3 -0.2
v 0.1 2.3 -0.3
v 0.4 2.3 -0.3
v 0.1 2.3 -0.4
v 0.2 2.3 -0.4
v 0.3 2.3 -0.4
v 0.4 2.3 -0.4
v 0 2.7 0
v 0.1 2.7 0
v 0.2 2.7 0
v 0.3 2.7 0
v 0.4 2.7 0
v 0.5 2.7 0
v 0 2.7 -0.1
v 0.1 2.7 -0.1
v 0.2 2.7 -0.1
v 0.3 2.7 -0.1
v 0.4 2.7 -0.1
v 0.5 2.7 -0.1
v 0 2.7 -0.2
v 0.1 2.7 -0.2
v 0.4 2.7 -0.2
v 0.5 2.7 -0.2
v 0 2.7 -0.3
v 0.1 2.7 -0.3
v 0.4 2.7 -0.3
v 0.5 2.7 -0.3
v 0 2.7 -0.4
v 0.1 2.7 -0.4
v 0.2 2.7 -0.4
v 0.3 2.7 -0.4
v 0.4 2.7 -0.4
v 0.5 2.7 -0.4
v 0 2.7 -0.5
v 0.1 2.7 -0.5
v 0.2 2.7 -0.5
v 0.3 2.7 -0.5
v 0.4 2.7 -0.5
v 0.5 2.7 -0.5

# faces
f 7/2/1 2/2/1 1/2/1
f 8/1/1 3/1/1 2/1/1
f 8/2/1 2/2/1 7/2/1
f 9/2/1 4/2/1 3/2/1
f 9/1/1 3/1/1 8/1/1
f 10/1/1 5/1/1 4/1/1
f 10/2/1 4/2/1 9/2/1
f 11/2/1 6/2/1 5/2/1
f 11/1/1 5/1/1 10/1/1
f 12/2/1 6/2/1 11/2/1
f 17/1/1 14/1/1 13/1/1
f 18/2/1 15/2/1 14/2/1
f 18/1/1 14/1/1 17/1/1
f 19/1/1 16/1/1 15/1/1
f 19/2/1 15/2/1 18/2/1
f 20/1/1 16/1/1 19/1/1
f 21/1/2 22/1/2 25/1/2
f 22/2/2 23/2/2 26/2/2
f 25/1/2 22/1/2 26/1/2
f 23/1/2 24/1/2 27/1/2
f 26/2/2 23/2/2 27/2/2
f 27/1/2 24/1/2 28/1/2
f 29/2/2 30/2/2 35/2/2
f 30/1/2 31/1/2 36/1/2
f 35/2/2 30/2/2 36/2/2
f 31/2/2 32/2/2 37/2/2
f 36/1/2 31/1/2 37/1/2
f 32/1/2 33/1/2 38/1/2
f 37/2/2 32/2/2 38/2/2
f 33/2/2 34/2/2 39/2/2
f 38/1/2 33/1/2 39/1/2
f 39/2/2 34/2/2 40/2/2
f 43/2/3 42/2/3 41/2/3
f 44/2/3 42/2/3 43/2/3
f 45/1/3 44/1/3 43/1/3
f 46/1/3 44/1/3 45/1/3
f 47/2/3 46/2/3 45/2/3
f 48/2/3 46/2/3 47/2/3
f 49/1/3 48/1/3 47/1/3
f 50/1/3 48/1/3 49/1/3
f 51/2/3 50/2/3 49/2/3
f 52/2/3 50/2/3 51/2/3
f 55/1/3 54/1/3 53/1/3
f 56/1/3 54/1/3 55/1/3
f 57/2/3 56/2/3 55/2/3
f 58/2/3 56/2/3 57/2/3
f 59/1/3 58/1/3 57/1/3
f 60/1/3 58/1/3 59/1/3
f 61/1/4 62/1/4 63/1/4
f 63/1/4 62/1/4 64/1/4
f 63/2/4 64/2/4 65/2/4
f 65/2/4 64/2/4 66/2/4
f 65/1/4 66/1/4 67/1/4
f 67/1/4 66/1/4 68/1/4
f 69/2/4 70/2/4 71/2/4
f 71/2/4 70/2/4 72/2/4
f 71/1/4 72/1/4 73/1/4
f 73/1/4 72/1/4 74/1/4
f 73/2/4 74/2/4 75/2/4
f 75/2/4 74/2/4 76/2/4
f 75/1/4 76/1/4 77/1/4
f 77/1/4 76/1/4 78/1/4
f 77/2/4 78/2/4 79/2/4
f 79/2/4 78/2/4 80/2/4
f 87/2/5 82/2/5 81/2/5
f 88/1/5 83/1/5 82/1/5
f 88/2/5 82/2/5 87/2/5
f 89/2/5 84/2/5 83/2/5
f 89/1/5 83/1/5 88/1/5
f 90/1/5 85/1/5 84/1/5
f 90/2/5 84/2/5 89/2/5
f 91/2/5 86/2/5 85/2/5
f 91/1/5 85/1/5 90/1/5
f 92/2/5 86/2/5 91/2/5
f 93/1/5 90/1/5 89/1/5
f 93/1/5 88/1/5 87/1/5
f 93/1/5 92/1/5 91/1/5
f 93/1/5 91/1/5 90/1/5
f 93/1/5 89/1/5 88/1/5
f 94/1/5 92/1/5 93/1/5
f 95/1/5 92/1/5 94/1/5
f 96/1/5 92/1/5 95/1/5
f 97/2/5 94/2/5 93/2/5
f 98/1/5 95/1/5 94/1/5
f 98/2/5 94/2/5 97/2/5
f 99/2/5 96/2/5 95/2/5
f 99/1/5 95/1/5 98/1/5
f 100/2/5 96/2/5 99/2/5
f 101/1/5 98/1/5 97/1/5
f 101/1/5 99/1/5 98/1/5
f 101/1/5 100/1/5 99/1/5
f 102/1/5 100/1/5 101/1/5
f 103/1/5 100/1/5 102/1/5
f 104/1/5 100/1/5 103/1/5
f 105/1/5 100/1/5 104/1/5
f 106/1/5 100/1/5 105/1/5
f 107/2/5 102/2/5 101/2/5
f 108/1/5 103/1/5 102/1/5
f 108/2/5 102/2/5 107/2/5
f 109/2/5 104/2/5 103/2/5
f 109/1/5 103/1/5 108/1/5
f 110/1/5 105/1/5 104/1/5
f 110/2/5 104/2/5 109/2/5
f 111/2/5 106/2/5 105/2/5
f 111/1/5 105/1/5 110/1/5
f 112/2/5 106/2/5 111/2/5
f 113/1/6 114/1/6 117/1/6
f 115/1/6 116/1/6 117/1/6
f 114/1/6 115/1/6 117/1/6
f 117/1/6 116/1/6 118/1/6
f 117/1/6 118/1/6 119/1/6
f 119/1/6 118/1/6 120/1/6
f 119/1/6 120/1/6 121/1/6
f 121/1/6 120/1/6 122/1/6
f 122/1/6 120/1/6 123/1/6
f 123/1/6 120/1/6 124/1/6
f 125/2/6 126/2/6 131/2/6
f 126/1/6 127/1/6 132/1/6
f 131/2/6 126/2/6 132/2/6
f 127/2/6 128/2/6 133/2/6
f 132/1/6 127/1/6 133/1/6
f 128/1/6 129/1/6 134/1/6
f 133/2/6 128/2/6 134/2/6
f 129/2/6 130/2/6 135/2/6
f 134/1/6 129/1/6 135/1/6
f 135/2/6 130/2/6 136/2/6
f 131/1/6 132/1/6 137/1/6
f 137/1/6 132/1/6 138/1/6
f 135/1/6 136/1/6 139/1/6
f 139/1/6 136/1/6 140/1/6
f 137/2/6 138/2/6 141/2/6
f 141/2/6 138/2/6 142/2/6
f 139/2/6 140/2/6 143/2/6
f 143/2/6 140/2/6 144/2/6
f 141/1/6 142/1/6 145/1/6
f 145/1/6 142/1/6 146/1/6
f 143/1/6 144/1/6 149/1/6
f 149/1/6 144/1/6 150/1/6
f 145/2/6 146/2/6 151/2/6
f 146/1/6 147/1/6 152/1/6
f 151/2/6 146/2/6 152/2/6
f 147/2/6 148/2/6 153/2/6
f 152/1/6 147/1/6 153/1/6
f 148/1/6 149/1/6 154/1/6
f 153/2/6 148/2/6 154/2/6
f 149/2/6 150/2/6 155/2/6
f 154/1/6 149/1/6 155/1/6
f 155/2/6 150/2/6 156/2/6
