# MagicaVoxel @ Ephtracy

# group
o 

# material
mtllib untitled.mtl
usemtl palette

# normals
vn -1 0 0
vn 1 0 0
vn 0 0 1
vn 0 0 -1
vn 0 -1 0
vn 0 1 0

# texcoords
vt 0.369141 0.5
vt 0.818359 0.5
vt 0.861328 0.5

# verts
v -0.4 2.1 0.4
v -0.4 2.1 -0.1
v -0.4 2.5 0.4
v -0.4 2.5 -0.1
v -0.3 2 0.1
v -0.3 2 0
v -0.3 2.1 0.1
v -0.3 2.1 0
v -0.2 1.5 0.2
v -0.2 1.5 0.1
v -0.2 2 0.1
v -0.2 2.1 0.2
v -0.2 2.1 0.1
v -0.2 2 0.1
v -0.2 2 0
v -0.2 2.1 0.1
v -0.2 2.1 0
v -0.1 1.5 0.2
v -0.1 1.5 0.1
v -0.1 2.1 0.2
v -0.1 2.1 0.1
v 0.1 2.1 0.4
v 0.1 2.1 0.2
v 0.1 2.1 0.1
v 0.1 2.1 -0.1
v 0.1 2.2 0.2
v 0.1 2.2 0.1
v 0.1 2.5 0.4
v 0.1 2.5 -0.1
v -0.4 2.1 0.4
v -0.4 2.5 0.4
v -0.2 2.2 0.4
v -0.2 2.3 0.4
v -0.1 2.2 0.4
v -0.1 2.3 0.4
v 0.1 2.1 0.4
v 0.1 2.5 0.4
v -0.2 1.5 0.2
v -0.2 2.1 0.2
v -0.1 1.5 0.2
v -0.1 2.1 0.2
v -0.3 2 0.1
v -0.3 2.1 0.1
v -0.2 2 0.1
v -0.2 2.1 0.1
v -0.2 1.5 0.1
v -0.2 2 0.1
v -0.2 2.1 0.1
v -0.1 1.5 0.1
v -0.1 2.1 0.1
v -0.3 2 0
v -0.3 2.1 0
v -0.2 2 0
v -0.2 2.1 0
v -0.4 2.1 -0.1
v -0.4 2.5 -0.1
v 0.1 2.1 -0.1
v 0.1 2.5 -0.1
v -0.2 1.5 0.2
v -0.1 1.5 0.2
v -0.2 1.5 0.1
v -0.1 1.5 0.1
v -0.3 2 0.1
v -0.2 2 0.1
v -0.3 2 0
v -0.2 2 0
v -0.4 2.1 0.4
v 0.1 2.1 0.4
v -0.2 2.1 0.2
v -0.1 2.1 0.2
v 0 2.1 0.2
v 0.1 2.1 0.2
v -0.3 2.1 0.1
v -0.2 2.1 0.1
v -0.1 2.1 0.1
v 0 2.1 0.1
v 0.1 2.1 0.1
v -0.3 2.1 0
v -0.2 2.1 0
v -0.4 2.1 -0.1
v 0.1 2.1 -0.1
v -0.4 2.5 0.4
v 0.1 2.5 0.4
v -0.4 2.5 -0.1
v 0.1 2.5 -0.1

# faces
f 3/2/1 2/2/1 1/2/1
f 4/2/1 2/2/1 3/2/1
f 7/3/1 6/3/1 5/3/1
f 8/3/1 6/3/1 7/3/1
f 11/1/1 10/1/1 9/1/1
f 12/1/1 11/1/1 9/1/1
f 13/1/1 11/1/1 12/1/1
f 14/3/2 15/3/2 16/3/2
f 16/3/2 15/3/2 17/3/2
f 18/1/2 19/1/2 20/1/2
f 20/1/2 19/1/2 21/1/2
f 22/2/2 23/2/2 26/2/2
f 23/3/2 24/3/2 26/3/2
f 24/2/2 25/2/2 27/2/2
f 26/3/2 24/3/2 27/3/2
f 22/2/2 26/2/2 28/2/2
f 26/2/2 27/2/2 28/2/2
f 27/2/2 25/2/2 29/2/2
f 28/2/2 27/2/2 29/2/2
f 32/2/3 31/2/3 30/2/3
f 33/2/3 31/2/3 32/2/3
f 34/2/3 32/2/3 30/2/3
f 34/3/3 33/3/3 32/3/3
f 35/2/3 31/2/3 33/2/3
f 35/3/3 33/3/3 34/3/3
f 36/2/3 34/2/3 30/2/3
f 36/2/3 35/2/3 34/2/3
f 37/2/3 31/2/3 35/2/3
f 37/2/3 35/2/3 36/2/3
f 40/1/3 39/1/3 38/1/3
f 41/1/3 39/1/3 40/1/3
f 44/3/3 43/3/3 42/3/3
f 45/3/3 43/3/3 44/3/3
f 46/1/4 47/1/4 49/1/4
f 47/1/4 48/1/4 49/1/4
f 49/1/4 48/1/4 50/1/4
f 51/3/4 52/3/4 53/3/4
f 53/3/4 52/3/4 54/3/4
f 55/2/4 56/2/4 57/2/4
f 57/2/4 56/2/4 58/2/4
f 61/1/5 60/1/5 59/1/5
f 62/1/5 60/1/5 61/1/5
f 65/3/5 64/3/5 63/3/5
f 66/3/5 64/3/5 65/3/5
f 69/2/5 68/2/5 67/2/5
f 70/2/5 68/2/5 69/2/5
f 71/2/5 68/2/5 70/2/5
f 72/2/5 68/2/5 71/2/5
f 73/2/5 69/2/5 67/2/5
f 74/2/5 69/2/5 73/2/5
f 75/2/5 71/2/5 70/2/5
f 76/3/5 72/3/5 71/3/5
f 76/2/5 71/2/5 75/2/5
f 77/3/5 72/3/5 76/3/5
f 78/2/5 73/2/5 67/2/5
f 79/2/5 75/2/5 74/2/5
f 79/2/5 77/2/5 76/2/5
f 79/2/5 76/2/5 75/2/5
f 80/2/5 78/2/5 67/2/5
f 80/2/5 79/2/5 78/2/5
f 81/2/5 77/2/5 79/2/5
f 81/2/5 79/2/5 80/2/5
f 82/2/6 83/2/6 84/2/6
f 84/2/6 83/2/6 85/2/6
