# MagicaVoxel @ Ephtracy

# group
o 

# material
mtllib light.mtl
usemtl palette

# normals
vn -1 0 0
vn 1 0 0
vn 0 0 1
vn 0 0 -1
vn 0 -1 0
vn 0 1 0

# texcoords
vt 0.0214844 0.5
vt 0.982422 0.5

# verts
v -0.3 2.5 2.23517e-008
v -0.3 2.5 -0.4
v -0.3 2.7 2.23517e-008
v -0.3 2.7 -0.4
v -0.2 0 -0.5
v -0.2 0 -0.7
v -0.2 2.5 -0.4
v -0.2 2.5 -0.5
v -0.2 2.7 -0.4
v -0.2 2.7 -0.7
v 2.98023e-008 0 -0.5
v 2.98023e-008 0 -0.7
v 2.98023e-008 2.5 -0.4
v 2.98023e-008 2.5 -0.5
v 2.98023e-008 2.7 -0.4
v 2.98023e-008 2.7 -0.7
v 0.1 2.5 2.23517e-008
v 0.1 2.5 -0.4
v 0.1 2.7 2.23517e-008
v 0.1 2.7 -0.4
v -0.3 2.5 2.23517e-008
v -0.3 2.7 2.23517e-008
v 0.1 2.5 2.23517e-008
v 0.1 2.7 2.23517e-008
v -0.2 0 -0.5
v -0.2 2.5 -0.5
v 2.98023e-008 0 -0.5
v 2.98023e-008 2.5 -0.5
v -0.3 2.5 -0.4
v -0.3 2.7 -0.4
v -0.2 2.5 -0.4
v -0.2 2.7 -0.4
v 2.98023e-008 2.5 -0.4
v 2.98023e-008 2.7 -0.4
v 0.1 2.5 -0.4
v 0.1 2.7 -0.4
v -0.2 0 -0.7
v -0.2 2.7 -0.7
v 2.98023e-008 0 -0.7
v 2.98023e-008 2.7 -0.7
v -0.2 0 -0.5
v 2.98023e-008 0 -0.5
v -0.2 0 -0.7
v 2.98023e-008 0 -0.7
v -0.3 2.5 2.23517e-008
v 0.1 2.5 2.23517e-008
v -0.2 2.5 -0.1
v 2.98023e-008 2.5 -0.1
v -0.2 2.5 -0.3
v 2.98023e-008 2.5 -0.3
v -0.3 2.5 -0.4
v -0.2 2.5 -0.4
v 2.98023e-008 2.5 -0.4
v 0.1 2.5 -0.4
v -0.2 2.5 -0.5
v 2.98023e-008 2.5 -0.5
v -0.3 2.7 2.23517e-008
v 0.1 2.7 2.23517e-008
v -0.3 2.7 -0.4
v -0.2 2.7 -0.4
v 2.98023e-008 2.7 -0.4
v 0.1 2.7 -0.4
v -0.2 2.7 -0.7
v 2.98023e-008 2.7 -0.7

# faces
f 3/2/1 2/2/1 1/2/1
f 4/2/1 2/2/1 3/2/1
f 8/2/1 6/2/1 5/2/1
f 9/2/1 8/2/1 7/2/1
f 10/2/1 6/2/1 8/2/1
f 10/2/1 8/2/1 9/2/1
f 11/2/2 12/2/2 14/2/2
f 13/2/2 14/2/2 15/2/2
f 14/2/2 12/2/2 16/2/2
f 15/2/2 14/2/2 16/2/2
f 17/2/2 18/2/2 19/2/2
f 19/2/2 18/2/2 20/2/2
f 23/2/3 22/2/3 21/2/3
f 24/2/3 22/2/3 23/2/3
f 27/2/3 26/2/3 25/2/3
f 28/2/3 26/2/3 27/2/3
f 29/2/4 30/2/4 31/2/4
f 31/2/4 30/2/4 32/2/4
f 33/2/4 34/2/4 35/2/4
f 35/2/4 34/2/4 36/2/4
f 37/2/4 38/2/4 39/2/4
f 39/2/4 38/2/4 40/2/4
f 43/2/5 42/2/5 41/2/5
f 44/2/5 42/2/5 43/2/5
f 47/2/5 46/2/5 45/2/5
f 48/2/5 46/2/5 47/2/5
f 49/2/5 47/2/5 45/2/5
f 49/1/5 48/1/5 47/1/5
f 50/2/5 46/2/5 48/2/5
f 50/1/5 48/1/5 49/1/5
f 51/2/5 49/2/5 45/2/5
f 51/2/5 50/2/5 49/2/5
f 52/2/5 50/2/5 51/2/5
f 53/2/5 46/2/5 50/2/5
f 53/2/5 50/2/5 52/2/5
f 54/2/5 46/2/5 53/2/5
f 55/2/5 53/2/5 52/2/5
f 56/2/5 53/2/5 55/2/5
f 57/2/6 58/2/6 59/2/6
f 59/2/6 58/2/6 60/2/6
f 60/2/6 58/2/6 61/2/6
f 61/2/6 58/2/6 62/2/6
f 60/2/6 61/2/6 63/2/6
f 63/2/6 61/2/6 64/2/6
