# MagicaVoxel @ Ephtracy

# group
o 

# material
mtllib untitled.mtl
usemtl palette

# normals
vn -1 0 0
vn 1 0 0
vn 0 0 1
vn 0 0 -1
vn 0 -1 0
vn 0 1 0

# texcoords
vt 0.775391 0.5
vt 0.966797 0.5

# verts
v 0 2.3 -0.2
v 0 2.3 -1.9
v 0 2.6 -0.2
v 0 2.6 -1.9
v 0.4 3.2 -0.4
v 0.4 3.2 -1.7
v 0.4 3.5 -0.4
v 0.4 3.5 -1.7
v 0.7 3.4 -0.8
v 0.7 3.4 -1.3
v 0.7 3.6 -0.8
v 0.7 3.6 -1.3
v 0.8 3.4 -0.7
v 0.8 3.4 -0.8
v 0.8 3.4 -1.3
v 0.8 3.4 -1.4
v 0.8 3.6 -0.7
v 0.8 3.6 -0.8
v 0.8 3.6 -0.9
v 0.8 3.6 -1.2
v 0.8 3.6 -1.3
v 0.8 3.6 -1.4
v 0.8 3.9 -0.9
v 0.8 3.9 -1.2
v 0.9 2 -0.9
v 0.9 2 -1.2
v 0.9 2.3 -0.9
v 0.9 2.3 -1.2
v 0.9 2.5 -0.9
v 0.9 2.5 -1.2
v 0.9 3.2 -0.9
v 0.9 3.2 -1.2
v 0.9 3.4 -0.6
v 0.9 3.4 -0.7
v 0.9 3.4 -1.4
v 0.9 3.4 -1.5
v 0.9 3.6 -0.6
v 0.9 3.6 -0.7
v 0.9 3.6 -0.8
v 0.9 3.6 -0.9
v 0.9 3.6 -1.2
v 0.9 3.6 -1.3
v 0.9 3.6 -1.4
v 0.9 3.6 -1.5
v 0.9 3.9 -0.8
v 0.9 3.9 -0.9
v 0.9 3.9 -1
v 0.9 3.9 -1.1
v 0.9 3.9 -1.2
v 0.9 3.9 -1.3
v 0.9 4 -0.9
v 0.9 4 -1
v 0.9 4 -1.1
v 0.9 4 -1.2
v 1.6 3.4 -0.5
v 1.6 3.4 -1.6
v 1.6 3.5 -0.5
v 1.6 3.5 -1.6
v 2 2.5 -0.3
v 2 2.5 -1.8
v 2 2.6 -0.3
v 2 2.6 -1.8
v 0.1 2.5 -0.3
v 0.1 2.5 -1.8
v 0.1 2.6 -0.3
v 0.1 2.6 -1.8
v 0.5 3.4 -0.5
v 0.5 3.4 -1.6
v 0.5 3.5 -0.5
v 0.5 3.5 -1.6
v 1.2 2 -0.9
v 1.2 2 -1.2
v 1.2 2.3 -0.9
v 1.2 2.3 -1.2
v 1.2 2.5 -0.9
v 1.2 2.5 -1.2
v 1.2 3.2 -0.9
v 1.2 3.2 -1.2
v 1.2 3.4 -0.6
v 1.2 3.4 -0.7
v 1.2 3.4 -1.4
v 1.2 3.4 -1.5
v 1.2 3.6 -0.6
v 1.2 3.6 -0.7
v 1.2 3.6 -0.8
v 1.2 3.6 -0.9
v 1.2 3.6 -1.2
v 1.2 3.6 -1.3
v 1.2 3.6 -1.4
v 1.2 3.6 -1.5
v 1.2 3.9 -0.8
v 1.2 3.9 -0.9
v 1.2 3.9 -1
v 1.2 3.9 -1.1
v 1.2 3.9 -1.2
v 1.2 3.9 -1.3
v 1.2 4 -0.9
v 1.2 4 -1
v 1.2 4 -1.1
v 1.2 4 -1.2
v 1.3 3.4 -0.7
v 1.3 3.4 -0.8
v 1.3 3.4 -1.3
v 1.3 3.4 -1.4
v 1.3 3.6 -0.7
v 1.3 3.6 -0.8
v 1.3 3.6 -0.9
v 1.3 3.6 -1.2
v 1.3 3.6 -1.3
v 1.3 3.6 -1.4
v 1.3 3.9 -0.9
v 1.3 3.9 -1.2
v 1.4 3.4 -0.8
v 1.4 3.4 -1.3
v 1.4 3.6 -0.8
v 1.4 3.6 -1.3
v 1.7 3.2 -0.4
v 1.7 3.2 -1.7
v 1.7 3.5 -0.4
v 1.7 3.5 -1.7
v 2.1 2.3 -0.2
v 2.1 2.3 -1.9
v 2.1 2.6 -0.2
v 2.1 2.6 -1.9
v 0 2.3 -0.2
v 0 2.6 -0.2
v 2.1 2.3 -0.2
v 2.1 2.6 -0.2
v 0.4 3.2 -0.4
v 0.4 3.5 -0.4
v 1.7 3.2 -0.4
v 1.7 3.5 -0.4
v 0.9 3.4 -0.6
v 0.9 3.6 -0.6
v 1.2 3.4 -0.6
v 1.2 3.6 -0.6
v 0.8 3.4 -0.7
v 0.8 3.6 -0.7
v 0.9 3.4 -0.7
v 0.9 3.6 -0.7
v 1.2 3.4 -0.7
v 1.2 3.6 -0.7
v 1.3 3.4 -0.7
v 1.3 3.6 -0.7
v 0.7 3.4 -0.8
v 0.7 3.6 -0.8
v 0.8 3.4 -0.8
v 0.8 3.6 -0.8
v 0.9 3.6 -0.8
v 0.9 3.9 -0.8
v 1.2 3.6 -0.8
v 1.2 3.9 -0.8
v 1.3 3.4 -0.8
v 1.3 3.6 -0.8
v 1.4 3.4 -0.8
v 1.4 3.6 -0.8
v 0.8 3.6 -0.9
v 0.8 3.9 -0.9
v 0.9 2 -0.9
v 0.9 2.3 -0.9
v 0.9 2.5 -0.9
v 0.9 3.2 -0.9
v 0.9 3.6 -0.9
v 0.9 3.9 -0.9
v 0.9 4 -0.9
v 1 3.9 -0.9
v 1 4 -0.9
v 1.1 3.9 -0.9
v 1.1 4 -0.9
v 1.2 2 -0.9
v 1.2 2.3 -0.9
v 1.2 2.5 -0.9
v 1.2 3.2 -0.9
v 1.2 3.6 -0.9
v 1.2 3.9 -0.9
v 1.2 4 -0.9
v 1.3 3.6 -0.9
v 1.3 3.9 -0.9
v 0.5 3.4 -1.6
v 0.5 3.5 -1.6
v 1.6 3.4 -1.6
v 1.6 3.5 -1.6
v 0.1 2.5 -1.8
v 0.1 2.6 -1.8
v 2 2.5 -1.8
v 2 2.6 -1.8
v 0.1 2.5 -0.3
v 0.1 2.6 -0.3
v 2 2.5 -0.3
v 2 2.6 -0.3
v 0.5 3.4 -0.5
v 0.5 3.5 -0.5
v 1.6 3.4 -0.5
v 1.6 3.5 -0.5
v 0.8 3.6 -1.2
v 0.8 3.9 -1.2
v 0.9 2 -1.2
v 0.9 2.3 -1.2
v 0.9 2.5 -1.2
v 0.9 3.2 -1.2
v 0.9 3.6 -1.2
v 0.9 3.9 -1.2
v 0.9 4 -1.2
v 1 3.9 -1.2
v 1 4 -1.2
v 1.1 3.9 -1.2
v 1.1 4 -1.2
v 1.2 2 -1.2
v 1.2 2.3 -1.2
v 1.2 2.5 -1.2
v 1.2 3.2 -1.2
v 1.2 3.6 -1.2
v 1.2 3.9 -1.2
v 1.2 4 -1.2
v 1.3 3.6 -1.2
v 1.3 3.9 -1.2
v 0.7 3.4 -1.3
v 0.7 3.6 -1.3
v 0.8 3.4 -1.3
v 0.8 3.6 -1.3
v 0.9 3.6 -1.3
v 0.9 3.9 -1.3
v 1.2 3.6 -1.3
v 1.2 3.9 -1.3
v 1.3 3.4 -1.3
v 1.3 3.6 -1.3
v 1.4 3.4 -1.3
v 1.4 3.6 -1.3
v 0.8 3.4 -1.4
v 0.8 3.6 -1.4
v 0.9 3.4 -1.4
v 0.9 3.6 -1.4
v 1.2 3.4 -1.4
v 1.2 3.6 -1.4
v 1.3 3.4 -1.4
v 1.3 3.6 -1.4
v 0.9 3.4 -1.5
v 0.9 3.6 -1.5
v 1.2 3.4 -1.5
v 1.2 3.6 -1.5
v 0.4 3.2 -1.7
v 0.4 3.5 -1.7
v 1.7 3.2 -1.7
v 1.7 3.5 -1.7
v 0 2.3 -1.9
v 0 2.6 -1.9
v 2.1 2.3 -1.9
v 2.1 2.6 -1.9
v 0.9 2 -0.9
v 1.2 2 -0.9
v 0.9 2 -1.2
v 1.2 2 -1.2
v 0 2.3 -0.2
v 2.1 2.3 -0.2
v 0.9 2.3 -0.9
v 1.2 2.3 -0.9
v 0.9 2.3 -1.2
v 1.2 2.3 -1.2
v 0 2.3 -1.9
v 2.1 2.3 -1.9
v 0.4 3.2 -0.4
v 1.7 3.2 -0.4
v 0.9 3.2 -0.9
v 1.2 3.2 -0.9
v 0.9 3.2 -1.2
v 1.2 3.2 -1.2
v 0.4 3.2 -1.7
v 1.7 3.2 -1.7
v 0.1 2.5 -0.3
v 2 2.5 -0.3
v 0.9 2.5 -0.9
v 1.2 2.5 -0.9
v 0.9 2.5 -1.2
v 1.2 2.5 -1.2
v 0.1 2.5 -1.8
v 2 2.5 -1.8
v 0 2.6 -0.2
v 2.1 2.6 -0.2
v 0.1 2.6 -0.3
v 2 2.6 -0.3
v 0.1 2.6 -1.8
v 2 2.6 -1.8
v 0 2.6 -1.9
v 2.1 2.6 -1.9
v 0.5 3.4 -0.5
v 1.6 3.4 -0.5
v 0.9 3.4 -0.6
v 1.2 3.4 -0.6
v 0.8 3.4 -0.7
v 0.9 3.4 -0.7
v 1.2 3.4 -0.7
v 1.3 3.4 -0.7
v 0.7 3.4 -0.8
v 0.8 3.4 -0.8
v 1.3 3.4 -0.8
v 1.4 3.4 -0.8
v 0.7 3.4 -1.3
v 0.8 3.4 -1.3
v 1.3 3.4 -1.3
v 1.4 3.4 -1.3
v 0.8 3.4 -1.4
v 0.9 3.4 -1.4
v 1.2 3.4 -1.4
v 1.3 3.4 -1.4
v 0.9 3.4 -1.5
v 1.2 3.4 -1.5
v 0.5 3.4 -1.6
v 1.6 3.4 -1.6
v 0.4 3.5 -0.4
v 1.7 3.5 -0.4
v 0.5 3.5 -0.5
v 1.6 3.5 -0.5
v 0.5 3.5 -1.6
v 1.6 3.5 -1.6
v 0.4 3.5 -1.7
v 1.7 3.5 -1.7
v 0.9 3.6 -0.6
v 1.2 3.6 -0.6
v 0.8 3.6 -0.7
v 0.9 3.6 -0.7
v 1.2 3.6 -0.7
v 1.3 3.6 -0.7
v 0.7 3.6 -0.8
v 0.8 3.6 -0.8
v 0.9 3.6 -0.8
v 1.2 3.6 -0.8
v 1.3 3.6 -0.8
v 1.4 3.6 -0.8
v 0.8 3.6 -0.9
v 0.9 3.6 -0.9
v 1.2 3.6 -0.9
v 1.3 3.6 -0.9
v 0.8 3.6 -1.2
v 0.9 3.6 -1.2
v 1.2 3.6 -1.2
v 1.3 3.6 -1.2
v 0.7 3.6 -1.3
v 0.8 3.6 -1.3
v 0.9 3.6 -1.3
v 1.2 3.6 -1.3
v 1.3 3.6 -1.3
v 1.4 3.6 -1.3
v 0.8 3.6 -1.4
v 0.9 3.6 -1.4
v 1.2 3.6 -1.4
v 1.3 3.6 -1.4
v 0.9 3.6 -1.5
v 1.2 3.6 -1.5
v 0.9 3.9 -0.8
v 1.2 3.9 -0.8
v 0.8 3.9 -0.9
v 0.9 3.9 -0.9
v 1 3.9 -0.9
v 1.1 3.9 -0.9
v 1.2 3.9 -0.9
v 1.3 3.9 -0.9
v 0.9 3.9 -1
v 1.2 3.9 -1
v 0.9 3.9 -1.1
v 1.2 3.9 -1.1
v 0.8 3.9 -1.2
v 0.9 3.9 -1.2
v 1 3.9 -1.2
v 1.1 3.9 -1.2
v 1.2 3.9 -1.2
v 1.3 3.9 -1.2
v 0.9 3.9 -1.3
v 1.2 3.9 -1.3
v 0.9 4 -0.9
v 1 4 -0.9
v 1.1 4 -0.9
v 1.2 4 -0.9
v 0.9 4 -1
v 1 4 -1
v 1.1 4 -1
v 1.2 4 -1
v 0.9 4 -1.1
v 1 4 -1.1
v 1.1 4 -1.1
v 1.2 4 -1.1
v 0.9 4 -1.2
v 1 4 -1.2
v 1.1 4 -1.2
v 1.2 4 -1.2

# faces
f 3/2/1 2/2/1 1/2/1
f 4/2/1 2/2/1 3/2/1
f 7/2/1 6/2/1 5/2/1
f 8/2/1 6/2/1 7/2/1
f 11/1/1 10/1/1 9/1/1
f 12/1/1 10/1/1 11/1/1
f 17/1/1 14/1/1 13/1/1
f 18/1/1 14/1/1 17/1/1
f 21/1/1 16/1/1 15/1/1
f 22/1/1 16/1/1 21/1/1
f 23/1/1 20/1/1 19/1/1
f 24/1/1 20/1/1 23/1/1
f 27/2/1 26/2/1 25/2/1
f 28/2/1 26/2/1 27/2/1
f 31/2/1 30/2/1 29/2/1
f 32/2/1 30/2/1 31/2/1
f 37/1/1 34/1/1 33/1/1
f 38/1/1 34/1/1 37/1/1
f 43/1/1 36/1/1 35/1/1
f 44/1/1 36/1/1 43/1/1
f 45/1/1 40/1/1 39/1/1
f 46/1/1 40/1/1 45/1/1
f 49/1/1 42/1/1 41/1/1
f 50/1/1 42/1/1 49/1/1
f 51/1/1 47/1/1 46/1/1
f 52/2/1 48/2/1 47/2/1
f 52/1/1 47/1/1 51/1/1
f 53/1/1 49/1/1 48/1/1
f 53/2/1 48/2/1 52/2/1
f 54/1/1 49/1/1 53/1/1
f 57/2/1 56/2/1 55/2/1
f 58/2/1 56/2/1 57/2/1
f 61/2/1 60/2/1 59/2/1
f 62/2/1 60/2/1 61/2/1
f 63/2/2 64/2/2 65/2/2
f 65/2/2 64/2/2 66/2/2
f 67/2/2 68/2/2 69/2/2
f 69/2/2 68/2/2 70/2/2
f 71/2/2 72/2/2 73/2/2
f 73/2/2 72/2/2 74/2/2
f 75/2/2 76/2/2 77/2/2
f 77/2/2 76/2/2 78/2/2
f 79/1/2 80/1/2 83/1/2
f 83/1/2 80/1/2 84/1/2
f 81/1/2 82/1/2 89/1/2
f 89/1/2 82/1/2 90/1/2
f 85/1/2 86/1/2 91/1/2
f 91/1/2 86/1/2 92/1/2
f 87/1/2 88/1/2 95/1/2
f 95/1/2 88/1/2 96/1/2
f 92/1/2 93/1/2 97/1/2
f 93/2/2 94/2/2 98/2/2
f 97/1/2 93/1/2 98/1/2
f 94/1/2 95/1/2 99/1/2
f 98/2/2 94/2/2 99/2/2
f 99/1/2 95/1/2 100/1/2
f 101/1/2 102/1/2 105/1/2
f 105/1/2 102/1/2 106/1/2
f 103/1/2 104/1/2 109/1/2
f 109/1/2 104/1/2 110/1/2
f 107/1/2 108/1/2 111/1/2
f 111/1/2 108/1/2 112/1/2
f 113/1/2 114/1/2 115/1/2
f 115/1/2 114/1/2 116/1/2
f 117/2/2 118/2/2 119/2/2
f 119/2/2 118/2/2 120/2/2
f 121/2/2 122/2/2 123/2/2
f 123/2/2 122/2/2 124/2/2
f 127/2/3 126/2/3 125/2/3
f 128/2/3 126/2/3 127/2/3
f 131/2/3 130/2/3 129/2/3
f 132/2/3 130/2/3 131/2/3
f 135/1/3 134/1/3 133/1/3
f 136/1/3 134/1/3 135/1/3
f 139/1/3 138/1/3 137/1/3
f 140/1/3 138/1/3 139/1/3
f 143/1/3 142/1/3 141/1/3
f 144/1/3 142/1/3 143/1/3
f 147/1/3 146/1/3 145/1/3
f 148/1/3 146/1/3 147/1/3
f 151/1/3 150/1/3 149/1/3
f 152/1/3 150/1/3 151/1/3
f 155/1/3 154/1/3 153/1/3
f 156/1/3 154/1/3 155/1/3
f 163/1/3 158/1/3 157/1/3
f 164/1/3 158/1/3 163/1/3
f 166/1/3 165/1/3 164/1/3
f 167/1/3 165/1/3 166/1/3
f 168/2/3 167/2/3 166/2/3
f 169/2/3 167/2/3 168/2/3
f 170/2/3 160/2/3 159/2/3
f 171/2/3 160/2/3 170/2/3
f 172/2/3 162/2/3 161/2/3
f 173/2/3 162/2/3 172/2/3
f 175/1/3 169/1/3 168/1/3
f 176/1/3 169/1/3 175/1/3
f 177/1/3 175/1/3 174/1/3
f 178/1/3 175/1/3 177/1/3
f 181/2/3 180/2/3 179/2/3
f 182/2/3 180/2/3 181/2/3
f 185/2/3 184/2/3 183/2/3
f 186/2/3 184/2/3 185/2/3
f 187/2/4 188/2/4 189/2/4
f 189/2/4 188/2/4 190/2/4
f 191/2/4 192/2/4 193/2/4
f 193/2/4 192/2/4 194/2/4
f 195/1/4 196/1/4 201/1/4
f 201/1/4 196/1/4 202/1/4
f 202/1/4 203/1/4 204/1/4
f 204/1/4 203/1/4 205/1/4
f 204/2/4 205/2/4 206/2/4
f 206/2/4 205/2/4 207/2/4
f 197/2/4 198/2/4 208/2/4
f 208/2/4 198/2/4 209/2/4
f 199/2/4 200/2/4 210/2/4
f 210/2/4 200/2/4 211/2/4
f 206/1/4 207/1/4 213/1/4
f 213/1/4 207/1/4 214/1/4
f 212/1/4 213/1/4 215/1/4
f 215/1/4 213/1/4 216/1/4
f 217/1/4 218/1/4 219/1/4
f 219/1/4 218/1/4 220/1/4
f 221/1/4 222/1/4 223/1/4
f 223/1/4 222/1/4 224/1/4
f 225/1/4 226/1/4 227/1/4
f 227/1/4 226/1/4 228/1/4
f 229/1/4 230/1/4 231/1/4
f 231/1/4 230/1/4 232/1/4
f 233/1/4 234/1/4 235/1/4
f 235/1/4 234/1/4 236/1/4
f 237/1/4 238/1/4 239/1/4
f 239/1/4 238/1/4 240/1/4
f 241/2/4 242/2/4 243/2/4
f 243/2/4 242/2/4 244/2/4
f 245/2/4 246/2/4 247/2/4
f 247/2/4 246/2/4 248/2/4
f 251/2/5 250/2/5 249/2/5
f 252/2/5 250/2/5 251/2/5
f 255/2/5 254/2/5 253/2/5
f 256/2/5 254/2/5 255/2/5
f 257/2/5 255/2/5 253/2/5
f 258/2/5 254/2/5 256/2/5
f 259/2/5 257/2/5 253/2/5
f 259/2/5 258/2/5 257/2/5
f 260/2/5 254/2/5 258/2/5
f 260/2/5 258/2/5 259/2/5
f 263/2/5 262/2/5 261/2/5
f 264/2/5 262/2/5 263/2/5
f 265/2/5 263/2/5 261/2/5
f 266/2/5 262/2/5 264/2/5
f 267/2/5 265/2/5 261/2/5
f 267/2/5 266/2/5 265/2/5
f 268/2/5 262/2/5 266/2/5
f 268/2/5 266/2/5 267/2/5
f 269/1/6 270/1/6 271/1/6
f 271/1/6 270/1/6 272/1/6
f 269/1/6 271/1/6 273/1/6
f 272/1/6 270/1/6 274/1/6
f 269/1/6 273/1/6 275/1/6
f 273/1/6 274/1/6 275/1/6
f 274/1/6 270/1/6 276/1/6
f 275/1/6 274/1/6 276/1/6
f 277/2/6 278/2/6 279/2/6
f 279/2/6 278/2/6 280/2/6
f 277/2/6 279/2/6 281/2/6
f 280/2/6 278/2/6 282/2/6
f 277/2/6 281/2/6 283/2/6
f 281/2/6 282/2/6 283/2/6
f 282/2/6 278/2/6 284/2/6
f 283/2/6 282/2/6 284/2/6
f 285/1/6 286/1/6 287/1/6
f 287/1/6 286/1/6 288/1/6
f 285/1/6 287/1/6 289/1/6
f 289/1/6 287/1/6 290/1/6
f 288/1/6 286/1/6 291/1/6
f 291/1/6 286/1/6 292/1/6
f 285/1/6 289/1/6 293/1/6
f 293/1/6 289/1/6 294/1/6
f 292/1/6 286/1/6 295/1/6
f 295/1/6 286/1/6 296/1/6
f 285/1/6 293/1/6 297/1/6
f 296/1/6 286/1/6 300/1/6
f 297/1/6 298/1/6 301/1/6
f 299/1/6 300/1/6 304/1/6
f 301/1/6 302/1/6 305/1/6
f 303/1/6 304/1/6 306/1/6
f 301/1/6 305/1/6 307/1/6
f 305/1/6 306/1/6 307/1/6
f 285/1/6 297/1/6 307/1/6
f 297/1/6 301/1/6 307/1/6
f 306/1/6 304/1/6 308/1/6
f 307/1/6 306/1/6 308/1/6
f 300/1/6 286/1/6 308/1/6
f 304/1/6 300/1/6 308/1/6
f 309/2/6 310/2/6 311/2/6
f 311/2/6 310/2/6 312/2/6
f 309/2/6 311/2/6 313/2/6
f 312/2/6 310/2/6 314/2/6
f 309/2/6 313/2/6 315/2/6
f 313/2/6 314/2/6 315/2/6
f 314/2/6 310/2/6 316/2/6
f 315/2/6 314/2/6 316/2/6
f 317/1/6 318/1/6 320/1/6
f 320/1/6 318/1/6 321/1/6
f 319/1/6 320/1/6 324/1/6
f 321/1/6 322/1/6 324/1/6
f 320/1/6 321/1/6 324/1/6
f 324/1/6 322/1/6 325/1/6
f 325/1/6 322/1/6 326/1/6
f 326/1/6 322/1/6 327/1/6
f 323/1/6 324/1/6 329/1/6
f 324/1/6 325/1/6 329/1/6
f 329/1/6 325/1/6 330/1/6
f 327/1/6 328/1/6 331/1/6
f 326/1/6 327/1/6 331/1/6
f 331/1/6 328/1/6 332/1/6
f 323/1/6 329/1/6 333/1/6
f 332/1/6 328/1/6 336/1/6
f 333/1/6 334/1/6 337/1/6
f 323/1/6 333/1/6 337/1/6
f 337/1/6 334/1/6 338/1/6
f 338/1/6 334/1/6 339/1/6
f 335/1/6 336/1/6 340/1/6
f 336/1/6 328/1/6 341/1/6
f 340/1/6 336/1/6 341/1/6
f 341/1/6 328/1/6 342/1/6
f 338/1/6 339/1/6 343/1/6
f 339/1/6 340/1/6 343/1/6
f 340/1/6 341/1/6 343/1/6
f 343/1/6 341/1/6 344/1/6
f 344/1/6 341/1/6 345/1/6
f 345/1/6 341/1/6 346/1/6
f 344/1/6 345/1/6 347/1/6
f 347/1/6 345/1/6 348/1/6
f 349/1/6 350/1/6 352/1/6
f 352/1/6 350/1/6 353/1/6
f 353/1/6 350/1/6 354/1/6
f 354/1/6 350/1/6 355/1/6
f 351/1/6 352/1/6 357/1/6
f 355/1/6 356/1/6 358/1/6
f 351/1/6 357/1/6 359/1/6
f 358/1/6 356/1/6 360/1/6
f 351/1/6 359/1/6 361/1/6
f 361/1/6 359/1/6 362/1/6
f 360/1/6 356/1/6 365/1/6
f 365/1/6 356/1/6 366/1/6
f 363/1/6 364/1/6 367/1/6
f 364/1/6 365/1/6 367/1/6
f 362/1/6 363/1/6 367/1/6
f 367/1/6 365/1/6 368/1/6
f 369/1/6 370/1/6 373/1/6
f 370/2/6 371/2/6 374/2/6
f 373/1/6 370/1/6 374/1/6
f 371/1/6 372/1/6 375/1/6
f 374/2/6 371/2/6 375/2/6
f 375/1/6 372/1/6 376/1/6
f 373/2/6 374/2/6 377/2/6
f 374/2/6 375/2/6 377/2/6
f 375/2/6 376/2/6 377/2/6
f 377/2/6 376/2/6 378/2/6
f 378/2/6 376/2/6 379/2/6
f 379/2/6 376/2/6 380/2/6
f 377/1/6 378/1/6 381/1/6
f 378/2/6 379/2/6 382/2/6
f 381/1/6 378/1/6 382/1/6
f 379/1/6 380/1/6 383/1/6
f 382/2/6 379/2/6 383/2/6
f 383/1/6 380/1/6 384/1/6
