# MagicaVoxel @ Ephtracy

# group
o 

# material
mtllib untitled.mtl
usemtl palette

# normals
vn -1 0 0
vn 1 0 0
vn 0 0 1
vn 0 0 -1
vn 0 -1 0
vn 0 1 0

# texcoords
vt 0.470703 0.5
vt 0.494141 0.5
vt 0.958984 0.5
vt 0.962891 0.5
vt 0.974609 0.5
vt 0.978516 0.5

# verts
v 0 2 -0.4
v 0 2 -3.8
v 0 2.4 -0.4
v 0 2.4 -0.5
v 0 4 -0.5
v 0 4 -3.8
v 0 4.1 -0.4
v 0 4.1 -0.5
v 0 4.2 -0.4
v 0 4.2 -3.8
v 1.4 2.5 -0.4
v 1.4 2.5 -0.5
v 1.4 4 -0.4
v 1.4 4 -0.5
v 1.5 2.7 0
v 1.5 2.7 -0.4
v 1.5 2.8 0
v 1.5 2.8 -0.4
v 2.4 2.9 -0.4
v 2.4 2.9 -0.5
v 2.4 3.5 -0.4
v 2.4 3.5 -0.5
v 3.9 2.5 -0.4
v 3.9 2.5 -0.5
v 3.9 4 -0.4
v 3.9 4 -0.5
v 0.1 2.5 -0.4
v 0.1 2.5 -0.5
v 0.1 4 -0.4
v 0.1 4 -0.5
v 1.6 2.9 -0.4
v 1.6 2.9 -0.5
v 1.6 3.5 -0.4
v 1.6 3.5 -0.5
v 2.5 2.7 0
v 2.5 2.7 -0.4
v 2.5 2.8 0
v 2.5 2.8 -0.4
v 2.6 2.5 -0.4
v 2.6 2.5 -0.5
v 2.6 4 -0.4
v 2.6 4 -0.5
v 3.8 2 -2.1
v 3.8 2 -2.8
v 3.8 3.3 -2.1
v 3.8 3.3 -2.8
v 4 2 -0.4
v 4 2 -2.1
v 4 2 -2.8
v 4 2 -3.8
v 4 2.4 -0.4
v 4 2.4 -0.5
v 4 3.3 -2.1
v 4 3.3 -2.8
v 4 4 -0.5
v 4 4 -3.8
v 4 4.1 -0.4
v 4 4.1 -0.5
v 4 4.2 -0.4
v 4 4.2 -3.8
v 1.5 2.7 0
v 1.5 2.8 0
v 2.5 2.7 0
v 2.5 2.8 0
v 0 2 -0.4
v 0 2.4 -0.4
v 0 4.1 -0.4
v 0 4.2 -0.4
v 0.1 2.5 -0.4
v 0.1 4 -0.4
v 1.4 2.5 -0.4
v 1.4 4 -0.4
v 1.5 2.4 -0.4
v 1.5 2.7 -0.4
v 1.5 2.8 -0.4
v 1.5 3.6 -0.4
v 1.5 4 -0.4
v 1.5 4.1 -0.4
v 1.6 2.9 -0.4
v 1.6 3.5 -0.4
v 2.4 2.9 -0.4
v 2.4 3.5 -0.4
v 2.5 2.4 -0.4
v 2.5 2.7 -0.4
v 2.5 2.8 -0.4
v 2.5 3.6 -0.4
v 2.5 4 -0.4
v 2.5 4.1 -0.4
v 2.6 2.5 -0.4
v 2.6 4 -0.4
v 3.9 2.5 -0.4
v 3.9 4 -0.4
v 4 2 -0.4
v 4 2.4 -0.4
v 4 4.1 -0.4
v 4 4.2 -0.4
v 0.1 2.5 -0.5
v 0.1 4 -0.5
v 1.4 2.5 -0.5
v 1.4 4 -0.5
v 1.6 2.9 -0.5
v 1.6 3.5 -0.5
v 2.4 2.9 -0.5
v 2.4 3.5 -0.5
v 2.6 2.5 -0.5
v 2.6 4 -0.5
v 3.9 2.5 -0.5
v 3.9 4 -0.5
v 3.8 2 -2.8
v 3.8 3.3 -2.8
v 4 2 -2.8
v 4 3.3 -2.8
v 3.8 2 -2.1
v 3.8 3.3 -2.1
v 4 2 -2.1
v 4 3.3 -2.1
v 0 2 -3.8
v 0 4 -3.8
v 0 4.2 -3.8
v 4 2 -3.8
v 4 4 -3.8
v 4 4.2 -3.8
v 0 2 -0.4
v 4 2 -0.4
v 3.7 2 -2.1
v 3.8 2 -2.1
v 4 2 -2.1
v 3.7 2 -2.8
v 3.8 2 -2.8
v 4 2 -2.8
v 0 2 -3.8
v 4 2 -3.8
v 1.5 2.7 0
v 2.5 2.7 0
v 1.5 2.7 -0.4
v 2.5 2.7 -0.4
v 3.8 3.3 -2.1
v 4 3.3 -2.1
v 3.8 3.3 -2.8
v 4 3.3 -2.8
v 1.6 3.5 -0.4
v 2.4 3.5 -0.4
v 1.6 3.5 -0.5
v 2.4 3.5 -0.5
v 0.1 4 -0.4
v 1.4 4 -0.4
v 2.6 4 -0.4
v 3.9 4 -0.4
v 0.1 4 -0.5
v 1.4 4 -0.5
v 2.6 4 -0.5
v 3.9 4 -0.5
v 0.1 2.5 -0.4
v 1.4 2.5 -0.4
v 2.6 2.5 -0.4
v 3.9 2.5 -0.4
v 0.1 2.5 -0.5
v 1.4 2.5 -0.5
v 2.6 2.5 -0.5
v 3.9 2.5 -0.5
v 1.5 2.8 0
v 2.5 2.8 0
v 1.5 2.8 -0.4
v 2.5 2.8 -0.4
v 1.6 2.9 -0.4
v 2.4 2.9 -0.4
v 1.6 2.9 -0.5
v 2.4 2.9 -0.5
v 0 4.2 -0.4
v 4 4.2 -0.4
v 0 4.2 -3.8
v 4 4.2 -3.8

# faces
f 3/6/1 2/6/1 1/6/1
f 4/6/1 2/6/1 3/6/1
f 5/5/1 4/5/1 3/5/1
f 5/6/1 2/6/1 4/6/1
f 6/6/1 2/6/1 5/6/1
f 7/5/1 5/5/1 3/5/1
f 8/4/1 6/4/1 5/4/1
f 8/5/1 5/5/1 7/5/1
f 9/4/1 8/4/1 7/4/1
f 10/4/1 6/4/1 8/4/1
f 10/4/1 8/4/1 9/4/1
f 13/5/1 12/5/1 11/5/1
f 14/5/1 12/5/1 13/5/1
f 17/3/1 16/3/1 15/3/1
f 18/3/1 16/3/1 17/3/1
f 21/5/1 20/5/1 19/5/1
f 22/5/1 20/5/1 21/5/1
f 25/5/1 24/5/1 23/5/1
f 26/5/1 24/5/1 25/5/1
f 27/5/2 28/5/2 29/5/2
f 29/5/2 28/5/2 30/5/2
f 31/5/2 32/5/2 33/5/2
f 33/5/2 32/5/2 34/5/2
f 35/3/2 36/3/2 37/3/2
f 37/3/2 36/3/2 38/3/2
f 39/5/2 40/5/2 41/5/2
f 41/5/2 40/5/2 42/5/2
f 43/5/2 44/5/2 45/5/2
f 45/5/2 44/5/2 46/5/2
f 47/6/2 48/6/2 51/6/2
f 51/6/2 48/6/2 52/6/2
f 52/6/2 48/6/2 53/6/2
f 49/6/2 50/6/2 54/6/2
f 52/6/2 53/6/2 55/6/2
f 53/6/2 54/6/2 55/6/2
f 51/5/2 52/5/2 55/5/2
f 54/6/2 50/6/2 56/6/2
f 55/6/2 54/6/2 56/6/2
f 51/5/2 55/5/2 57/5/2
f 55/4/2 56/4/2 58/4/2
f 57/5/2 55/5/2 58/5/2
f 57/4/2 58/4/2 59/4/2
f 58/4/2 56/4/2 60/4/2
f 59/4/2 58/4/2 60/4/2
f 63/3/3 62/3/3 61/3/3
f 64/3/3 62/3/3 63/3/3
f 69/5/3 67/5/3 66/5/3
f 70/5/3 67/5/3 69/5/3
f 71/5/3 69/5/3 66/5/3
f 72/5/3 67/5/3 70/5/3
f 73/6/3 66/6/3 65/6/3
f 73/5/3 72/5/3 71/5/3
f 73/5/3 71/5/3 66/5/3
f 74/5/3 72/5/3 73/5/3
f 75/5/3 72/5/3 74/5/3
f 76/5/3 72/5/3 75/5/3
f 77/5/3 67/5/3 72/5/3
f 77/5/3 72/5/3 76/5/3
f 78/4/3 68/4/3 67/4/3
f 78/5/3 67/5/3 77/5/3
f 79/5/3 76/5/3 75/5/3
f 80/5/3 76/5/3 79/5/3
f 81/5/3 79/5/3 75/5/3
f 82/5/3 76/5/3 80/5/3
f 83/6/3 73/6/3 65/6/3
f 83/6/3 74/6/3 73/6/3
f 84/6/3 74/6/3 83/6/3
f 85/5/3 82/5/3 81/5/3
f 85/5/3 81/5/3 75/5/3
f 86/6/3 77/6/3 76/6/3
f 86/5/3 76/5/3 82/5/3
f 86/5/3 82/5/3 85/5/3
f 87/4/3 78/4/3 77/4/3
f 87/6/3 77/6/3 86/6/3
f 88/4/3 68/4/3 78/4/3
f 88/4/3 78/4/3 87/4/3
f 89/5/3 87/5/3 86/5/3
f 89/5/3 85/5/3 84/5/3
f 89/5/3 88/5/3 87/5/3
f 89/5/3 84/5/3 83/5/3
f 89/5/3 86/5/3 85/5/3
f 90/5/3 88/5/3 89/5/3
f 91/5/3 89/5/3 83/5/3
f 92/5/3 88/5/3 90/5/3
f 93/6/3 83/6/3 65/6/3
f 94/5/3 92/5/3 91/5/3
f 94/6/3 83/6/3 93/6/3
f 94/5/3 91/5/3 83/5/3
f 95/4/3 68/4/3 88/4/3
f 95/5/3 92/5/3 94/5/3
f 95/5/3 88/5/3 92/5/3
f 96/4/3 68/4/3 95/4/3
f 99/1/3 98/1/3 97/1/3
f 100/1/3 98/1/3 99/1/3
f 103/2/3 102/2/3 101/2/3
f 104/2/3 102/2/3 103/2/3
f 107/1/3 106/1/3 105/1/3
f 108/1/3 106/1/3 107/1/3
f 111/6/3 110/6/3 109/6/3
f 112/6/3 110/6/3 111/6/3
f 113/6/4 114/6/4 115/6/4
f 115/6/4 114/6/4 116/6/4
f 117/6/4 118/6/4 120/6/4
f 118/4/4 119/4/4 121/4/4
f 120/6/4 118/6/4 121/6/4
f 121/4/4 119/4/4 122/4/4
f 125/6/5 124/6/5 123/6/5
f 126/6/5 124/6/5 125/6/5
f 127/6/5 124/6/5 126/6/5
f 128/6/5 125/6/5 123/6/5
f 128/5/5 126/5/5 125/5/5
f 129/5/5 126/5/5 128/5/5
f 131/6/5 128/6/5 123/6/5
f 131/6/5 130/6/5 129/6/5
f 131/6/5 129/6/5 128/6/5
f 132/6/5 130/6/5 131/6/5
f 135/3/5 134/3/5 133/3/5
f 136/3/5 134/3/5 135/3/5
f 139/6/5 138/6/5 137/6/5
f 140/6/5 138/6/5 139/6/5
f 143/5/5 142/5/5 141/5/5
f 144/5/5 142/5/5 143/5/5
f 149/5/5 146/5/5 145/5/5
f 150/5/5 146/5/5 149/5/5
f 151/5/5 148/5/5 147/5/5
f 152/5/5 148/5/5 151/5/5
f 153/5/6 154/5/6 157/5/6
f 157/5/6 154/5/6 158/5/6
f 155/5/6 156/5/6 159/5/6
f 159/5/6 156/5/6 160/5/6
f 161/3/6 162/3/6 163/3/6
f 163/3/6 162/3/6 164/3/6
f 165/5/6 166/5/6 167/5/6
f 167/5/6 166/5/6 168/5/6
f 169/4/6 170/4/6 171/4/6
f 171/4/6 170/4/6 172/4/6
