# MagicaVoxel @ Ephtracy

# group
o 

# material
mtllib fanse sand.mtl
usemtl palette

# normals
vn -1 0 0
vn 1 0 0
vn 0 0 1
vn 0 0 -1
vn 0 -1 0
vn 0 1 0

# texcoords
vt 0.00976563 0.5
vt 0.0175781 0.5
vt 0.0683594 0.5
vt 0.537109 0.5

# verts
v 0.9 2 -2.1
v 0.9 2 -2.4
v 0.9 2.8 -2.1
v 0.9 2.8 -2.4
v 1.2 2.7 -2.2
v 1.2 2.7 -2.3
v 1.2 2.8 -2.2
v 1.2 2.8 -2.3
v 1.5 2 -2.2
v 1.5 2 -2.3
v 1.5 2.1 -2.3
v 1.5 2.2 -2.3
v 1.5 2.4 -2.2
v 1.5 2.4 -2.3
v 1.5 2.6 -2.2
v 1.5 2.6 -2.3
v 1.5 2.7 -2.2
v 1.5 2.7 -2.3
v 1.6 2.7 -2.2
v 1.6 2.7 -2.3
v 1.6 2.8 -2.2
v 1.6 2.8 -2.3
v 2 2 -2.2
v 2 2 -2.3
v 2 2.1 -2.3
v 2 2.2 -2.3
v 2 2.3 -2.2
v 2 2.3 -2.3
v 2 2.5 -2.2
v 2 2.5 -2.3
v 2 2.6 -2.3
v 2 2.7 -2.2
v 2 2.7 -2.3
v 2.1 2.7 -2.2
v 2.1 2.7 -2.3
v 2.1 2.8 -2.2
v 2.1 2.8 -2.3
v 2.4 2 -2.2
v 2.4 2 -2.3
v 2.4 2.1 -2.3
v 2.4 2.2 -2.2
v 2.4 2.2 -2.3
v 2.4 2.5 -2.2
v 2.4 2.5 -2.3
v 2.4 2.6 -2.3
v 2.4 2.7 -2.2
v 2.4 2.7 -2.3
v 2.5 2.7 -2.2
v 2.5 2.7 -2.3
v 2.5 2.8 -2.2
v 2.5 2.8 -2.3
v 2.7 2 -2.1
v 2.7 2 -2.2
v 2.7 2 -2.3
v 2.7 2 -2.4
v 2.7 2.1 -2.3
v 2.7 2.1 -2.4
v 2.7 2.2 -2.2
v 2.7 2.2 -2.3
v 2.7 2.2 -2.4
v 2.7 2.5 -2.2
v 2.7 2.5 -2.3
v 2.7 2.6 -2.3
v 2.7 2.6 -2.4
v 2.7 2.7 -2.2
v 2.7 2.7 -2.3
v 2.7 2.7 -2.4
v 2.7 2.8 -2.1
v 2.7 2.8 -2.4
v 1.1 2 -2.1
v 1.1 2 -2.2
v 1.1 2 -2.3
v 1.1 2 -2.4
v 1.1 2.1 -2.2
v 1.1 2.1 -2.3
v 1.1 2.1 -2.4
v 1.1 2.2 -2.3
v 1.1 2.2 -2.4
v 1.1 2.3 -2.2
v 1.1 2.3 -2.3
v 1.1 2.6 -2.2
v 1.1 2.6 -2.3
v 1.1 2.6 -2.4
v 1.1 2.7 -2.2
v 1.1 2.7 -2.3
v 1.1 2.7 -2.4
v 1.1 2.8 -2.1
v 1.1 2.8 -2.4
v 1.3 2.7 -2.2
v 1.3 2.7 -2.3
v 1.3 2.8 -2.2
v 1.3 2.8 -2.3
v 1.4 2 -2.2
v 1.4 2 -2.3
v 1.4 2.1 -2.2
v 1.4 2.1 -2.3
v 1.4 2.2 -2.3
v 1.4 2.4 -2.2
v 1.4 2.4 -2.3
v 1.4 2.5 -2.2
v 1.4 2.5 -2.3
v 1.4 2.6 -2.3
v 1.4 2.7 -2.2
v 1.4 2.7 -2.3
v 1.7 2.7 -2.2
v 1.7 2.7 -2.3
v 1.7 2.8 -2.2
v 1.7 2.8 -2.3
v 1.8 2 -2.2
v 1.8 2 -2.3
v 1.8 2.1 -2.3
v 1.8 2.2 -2.3
v 1.8 2.3 -2.2
v 1.8 2.3 -2.3
v 1.8 2.5 -2.2
v 1.8 2.5 -2.3
v 1.8 2.6 -2.3
v 1.8 2.7 -2.2
v 1.8 2.7 -2.3
v 2.2 2.7 -2.2
v 2.2 2.7 -2.3
v 2.2 2.8 -2.2
v 2.2 2.8 -2.3
v 2.3 2 -2.2
v 2.3 2 -2.3
v 2.3 2.1 -2.3
v 2.3 2.2 -2.2
v 2.3 2.2 -2.3
v 2.3 2.5 -2.2
v 2.3 2.5 -2.3
v 2.3 2.6 -2.3
v 2.3 2.7 -2.2
v 2.3 2.7 -2.3
v 2.6 2.7 -2.2
v 2.6 2.7 -2.3
v 2.6 2.8 -2.2
v 2.6 2.8 -2.3
v 2.9 2 -2.1
v 2.9 2 -2.4
v 2.9 2.8 -2.1
v 2.9 2.8 -2.4
v 0.9 2 -2.1
v 0.9 2.8 -2.1
v 1.1 2 -2.1
v 1.1 2.8 -2.1
v 2.7 2 -2.1
v 2.7 2.8 -2.1
v 2.9 2 -2.1
v 2.9 2.8 -2.1
v 1.1 2 -2.2
v 1.1 2.1 -2.2
v 1.1 2.3 -2.2
v 1.1 2.6 -2.2
v 1.1 2.7 -2.2
v 1.2 2 -2.2
v 1.2 2.1 -2.2
v 1.2 2.3 -2.2
v 1.2 2.6 -2.2
v 1.2 2.7 -2.2
v 1.2 2.8 -2.2
v 1.3 2.1 -2.2
v 1.3 2.4 -2.2
v 1.3 2.5 -2.2
v 1.3 2.7 -2.2
v 1.3 2.8 -2.2
v 1.4 2 -2.2
v 1.4 2.1 -2.2
v 1.4 2.4 -2.2
v 1.4 2.5 -2.2
v 1.4 2.7 -2.2
v 1.5 2 -2.2
v 1.5 2.4 -2.2
v 1.5 2.6 -2.2
v 1.5 2.7 -2.2
v 1.6 2.2 -2.2
v 1.6 2.4 -2.2
v 1.6 2.7 -2.2
v 1.6 2.8 -2.2
v 1.7 2 -2.2
v 1.7 2.2 -2.2
v 1.7 2.3 -2.2
v 1.7 2.5 -2.2
v 1.7 2.6 -2.2
v 1.7 2.7 -2.2
v 1.7 2.8 -2.2
v 1.8 2 -2.2
v 1.8 2.3 -2.2
v 1.8 2.5 -2.2
v 1.8 2.7 -2.2
v 2 2 -2.2
v 2 2.3 -2.2
v 2 2.5 -2.2
v 2 2.7 -2.2
v 2.1 2.1 -2.2
v 2.1 2.3 -2.2
v 2.1 2.5 -2.2
v 2.1 2.6 -2.2
v 2.1 2.7 -2.2
v 2.1 2.8 -2.2
v 2.2 2 -2.2
v 2.2 2.1 -2.2
v 2.2 2.2 -2.2
v 2.2 2.5 -2.2
v 2.2 2.6 -2.2
v 2.2 2.7 -2.2
v 2.2 2.8 -2.2
v 2.3 2 -2.2
v 2.3 2.2 -2.2
v 2.3 2.5 -2.2
v 2.3 2.7 -2.2
v 2.4 2 -2.2
v 2.4 2.2 -2.2
v 2.4 2.5 -2.2
v 2.4 2.7 -2.2
v 2.5 2.1 -2.2
v 2.5 2.2 -2.2
v 2.5 2.3 -2.2
v 2.5 2.4 -2.2
v 2.5 2.5 -2.2
v 2.5 2.6 -2.2
v 2.5 2.7 -2.2
v 2.5 2.8 -2.2
v 2.6 2 -2.2
v 2.6 2.1 -2.2
v 2.6 2.2 -2.2
v 2.6 2.3 -2.2
v 2.6 2.4 -2.2
v 2.6 2.5 -2.2
v 2.6 2.6 -2.2
v 2.6 2.7 -2.2
v 2.6 2.8 -2.2
v 2.7 2 -2.2
v 2.7 2.2 -2.2
v 2.7 2.5 -2.2
v 2.7 2.7 -2.2
v 1.4 2.1 -2.3
v 1.4 2.2 -2.3
v 1.4 2.6 -2.3
v 1.4 2.7 -2.3
v 1.5 2.1 -2.3
v 1.5 2.2 -2.3
v 1.5 2.6 -2.3
v 1.5 2.7 -2.3
v 1.8 2.1 -2.3
v 1.8 2.2 -2.3
v 1.8 2.6 -2.3
v 1.8 2.7 -2.3
v 2 2.1 -2.3
v 2 2.2 -2.3
v 2 2.6 -2.3
v 2 2.7 -2.3
v 2.3 2.1 -2.3
v 2.3 2.2 -2.3
v 2.3 2.6 -2.3
v 2.3 2.7 -2.3
v 2.4 2.1 -2.3
v 2.4 2.2 -2.3
v 2.4 2.6 -2.3
v 2.4 2.7 -2.3
v 1.1 2 -2.3
v 1.1 2.1 -2.3
v 1.1 2.2 -2.3
v 1.1 2.3 -2.3
v 1.1 2.6 -2.3
v 1.2 2 -2.3
v 1.2 2.1 -2.3
v 1.2 2.3 -2.3
v 1.2 2.6 -2.3
v 1.2 2.7 -2.3
v 1.2 2.8 -2.3
v 1.3 2.2 -2.3
v 1.3 2.4 -2.3
v 1.3 2.5 -2.3
v 1.3 2.6 -2.3
v 1.3 2.7 -2.3
v 1.3 2.8 -2.3
v 1.4 2 -2.3
v 1.4 2.1 -2.3
v 1.4 2.2 -2.3
v 1.4 2.4 -2.3
v 1.4 2.5 -2.3
v 1.4 2.6 -2.3
v 1.5 2 -2.3
v 1.5 2.1 -2.3
v 1.5 2.2 -2.3
v 1.5 2.4 -2.3
v 1.5 2.6 -2.3
v 1.6 2.2 -2.3
v 1.6 2.4 -2.3
v 1.6 2.7 -2.3
v 1.6 2.8 -2.3
v 1.7 2 -2.3
v 1.7 2.1 -2.3
v 1.7 2.3 -2.3
v 1.7 2.5 -2.3
v 1.7 2.7 -2.3
v 1.7 2.8 -2.3
v 1.8 2 -2.3
v 1.8 2.1 -2.3
v 1.8 2.2 -2.3
v 1.8 2.3 -2.3
v 1.8 2.5 -2.3
v 1.8 2.6 -2.3
v 2 2 -2.3
v 2 2.1 -2.3
v 2 2.2 -2.3
v 2 2.3 -2.3
v 2 2.5 -2.3
v 2 2.6 -2.3
v 2.1 2.2 -2.3
v 2.1 2.3 -2.3
v 2.1 2.5 -2.3
v 2.1 2.6 -2.3
v 2.1 2.7 -2.3
v 2.1 2.8 -2.3
v 2.2 2 -2.3
v 2.2 2.1 -2.3
v 2.2 2.2 -2.3
v 2.2 2.5 -2.3
v 2.2 2.7 -2.3
v 2.2 2.8 -2.3
v 2.3 2 -2.3
v 2.3 2.1 -2.3
v 2.3 2.2 -2.3
v 2.3 2.5 -2.3
v 2.3 2.6 -2.3
v 2.4 2 -2.3
v 2.4 2.1 -2.3
v 2.4 2.2 -2.3
v 2.4 2.5 -2.3
v 2.4 2.6 -2.3
v 2.5 2.3 -2.3
v 2.5 2.4 -2.3
v 2.5 2.5 -2.3
v 2.5 2.6 -2.3
v 2.5 2.7 -2.3
v 2.5 2.8 -2.3
v 2.6 2 -2.3
v 2.6 2.1 -2.3
v 2.6 2.2 -2.3
v 2.6 2.3 -2.3
v 2.6 2.4 -2.3
v 2.6 2.5 -2.3
v 2.6 2.7 -2.3
v 2.6 2.8 -2.3
v 2.7 2 -2.3
v 2.7 2.1 -2.3
v 2.7 2.2 -2.3
v 2.7 2.5 -2.3
v 2.7 2.6 -2.3
v 0.9 2 -2.4
v 0.9 2.8 -2.4
v 1.1 2 -2.4
v 1.1 2.1 -2.4
v 1.1 2.2 -2.4
v 1.1 2.6 -2.4
v 1.1 2.7 -2.4
v 1.1 2.8 -2.4
v 2.7 2 -2.4
v 2.7 2.1 -2.4
v 2.7 2.2 -2.4
v 2.7 2.6 -2.4
v 2.7 2.7 -2.4
v 2.7 2.8 -2.4
v 2.9 2 -2.4
v 2.9 2.8 -2.4
v 0.9 2 -2.1
v 1.1 2 -2.1
v 2.7 2 -2.1
v 2.9 2 -2.1
v 1 2 -2.2
v 1.1 2 -2.2
v 1.2 2 -2.2
v 1.4 2 -2.2
v 1.5 2 -2.2
v 1.7 2 -2.2
v 1.8 2 -2.2
v 2 2 -2.2
v 2.2 2 -2.2
v 2.3 2 -2.2
v 2.4 2 -2.2
v 2.6 2 -2.2
v 2.7 2 -2.2
v 2.8 2 -2.2
v 1 2 -2.3
v 1.1 2 -2.3
v 1.2 2 -2.3
v 1.4 2 -2.3
v 1.5 2 -2.3
v 1.7 2 -2.3
v 1.8 2 -2.3
v 2 2 -2.3
v 2.2 2 -2.3
v 2.3 2 -2.3
v 2.4 2 -2.3
v 2.6 2 -2.3
v 2.7 2 -2.3
v 2.8 2 -2.3
v 0.9 2 -2.4
v 1.1 2 -2.4
v 2.7 2 -2.4
v 2.9 2 -2.4
v 1.1 2.1 -2.3
v 1.2 2.1 -2.3
v 1.4 2.1 -2.3
v 1.5 2.1 -2.3
v 1.7 2.1 -2.3
v 1.8 2.1 -2.3
v 2 2.1 -2.3
v 2.2 2.1 -2.3
v 2.3 2.1 -2.3
v 2.4 2.1 -2.3
v 2.6 2.1 -2.3
v 2.7 2.1 -2.3
v 1.1 2.1 -2.4
v 2.7 2.1 -2.4
v 1.1 2.6 -2.3
v 1.2 2.6 -2.3
v 1.3 2.6 -2.3
v 1.4 2.6 -2.3
v 1.5 2.6 -2.3
v 1.8 2.6 -2.3
v 2 2.6 -2.3
v 2.1 2.6 -2.3
v 2.3 2.6 -2.3
v 2.4 2.6 -2.3
v 2.5 2.6 -2.3
v 2.7 2.6 -2.3
v 1.1 2.6 -2.4
v 2.7 2.6 -2.4
v 1.1 2.2 -2.3
v 1.3 2.2 -2.3
v 1.4 2.2 -2.3
v 1.5 2.2 -2.3
v 1.6 2.2 -2.3
v 1.8 2.2 -2.3
v 2 2.2 -2.3
v 2.1 2.2 -2.3
v 2.2 2.2 -2.3
v 2.3 2.2 -2.3
v 2.4 2.2 -2.3
v 2.6 2.2 -2.3
v 2.7 2.2 -2.3
v 1.1 2.2 -2.4
v 2.7 2.2 -2.4
v 1.1 2.7 -2.2
v 1.2 2.7 -2.2
v 1.3 2.7 -2.2
v 1.4 2.7 -2.2
v 1.5 2.7 -2.2
v 1.6 2.7 -2.2
v 1.7 2.7 -2.2
v 1.8 2.7 -2.2
v 2 2.7 -2.2
v 2.1 2.7 -2.2
v 2.2 2.7 -2.2
v 2.3 2.7 -2.2
v 2.4 2.7 -2.2
v 2.5 2.7 -2.2
v 2.6 2.7 -2.2
v 2.7 2.7 -2.2
v 1.1 2.7 -2.3
v 1.2 2.7 -2.3
v 1.3 2.7 -2.3
v 1.4 2.7 -2.3
v 1.5 2.7 -2.3
v 1.6 2.7 -2.3
v 1.7 2.7 -2.3
v 1.8 2.7 -2.3
v 2 2.7 -2.3
v 2.1 2.7 -2.3
v 2.2 2.7 -2.3
v 2.3 2.7 -2.3
v 2.4 2.7 -2.3
v 2.5 2.7 -2.3
v 2.6 2.7 -2.3
v 2.7 2.7 -2.3
v 1.1 2.7 -2.4
v 2.7 2.7 -2.4
v 0.9 2.8 -2.1
v 1.1 2.8 -2.1
v 2.7 2.8 -2.1
v 2.9 2.8 -2.1
v 1.2 2.8 -2.2
v 1.3 2.8 -2.2
v 1.6 2.8 -2.2
v 1.7 2.8 -2.2
v 2.1 2.8 -2.2
v 2.2 2.8 -2.2
v 2.5 2.8 -2.2
v 2.6 2.8 -2.2
v 1.2 2.8 -2.3
v 1.3 2.8 -2.3
v 1.6 2.8 -2.3
v 1.7 2.8 -2.3
v 2.1 2.8 -2.3
v 2.2 2.8 -2.3
v 2.5 2.8 -2.3
v 2.6 2.8 -2.3
v 0.9 2.8 -2.4
v 1.1 2.8 -2.4
v 2.7 2.8 -2.4
v 2.9 2.8 -2.4

# faces
f 3/2/1 2/2/1 1/2/1
f 4/2/1 2/2/1 3/2/1
f 7/1/1 6/1/1 5/1/1
f 8/1/1 6/1/1 7/1/1
f 11/1/1 10/1/1 9/1/1
f 12/1/1 11/1/1 9/1/1
f 13/1/1 12/1/1 9/1/1
f 14/1/1 12/1/1 13/1/1
f 15/3/1 14/3/1 13/3/1
f 16/3/1 14/3/1 15/3/1
f 17/1/1 16/1/1 15/1/1
f 18/1/1 16/1/1 17/1/1
f 21/1/1 20/1/1 19/1/1
f 22/1/1 20/1/1 21/1/1
f 25/1/1 24/1/1 23/1/1
f 26/1/1 25/1/1 23/1/1
f 27/1/1 26/1/1 23/1/1
f 28/1/1 26/1/1 27/1/1
f 29/3/1 28/3/1 27/3/1
f 30/3/1 28/3/1 29/3/1
f 31/1/1 30/1/1 29/1/1
f 32/1/1 31/1/1 29/1/1
f 33/1/1 31/1/1 32/1/1
f 36/1/1 35/1/1 34/1/1
f 37/1/1 35/1/1 36/1/1
f 40/1/1 39/1/1 38/1/1
f 41/1/1 40/1/1 38/1/1
f 42/1/1 40/1/1 41/1/1
f 43/3/1 42/3/1 41/3/1
f 44/3/1 42/3/1 43/3/1
f 45/1/1 44/1/1 43/1/1
f 46/1/1 45/1/1 43/1/1
f 47/1/1 45/1/1 46/1/1
f 50/1/1 49/1/1 48/1/1
f 51/1/1 49/1/1 50/1/1
f 56/2/1 55/2/1 54/2/1
f 57/2/1 55/2/1 56/2/1
f 58/2/1 53/2/1 52/2/1
f 61/2/1 58/2/1 52/2/1
f 62/2/1 60/2/1 59/2/1
f 63/2/1 60/2/1 62/2/1
f 64/2/1 60/2/1 63/2/1
f 65/2/1 61/2/1 52/2/1
f 68/2/1 65/2/1 52/2/1
f 68/2/1 67/2/1 66/2/1
f 68/2/1 66/2/1 65/2/1
f 69/2/1 67/2/1 68/2/1
f 70/2/2 71/2/2 74/2/2
f 72/2/2 73/2/2 75/2/2
f 75/2/2 73/2/2 76/2/2
f 70/2/2 74/2/2 79/2/2
f 77/2/2 78/2/2 80/2/2
f 70/2/2 79/2/2 81/2/2
f 80/2/2 78/2/2 82/2/2
f 82/2/2 78/2/2 83/2/2
f 70/2/2 81/2/2 84/2/2
f 70/2/2 84/2/2 87/2/2
f 85/2/2 86/2/2 87/2/2
f 84/2/2 85/2/2 87/2/2
f 87/2/2 86/2/2 88/2/2
f 89/1/2 90/1/2 91/1/2
f 91/1/2 90/1/2 92/1/2
f 93/3/2 94/3/2 95/3/2
f 95/3/2 94/3/2 96/3/2
f 95/1/2 96/1/2 97/1/2
f 95/1/2 97/1/2 98/1/2
f 98/1/2 97/1/2 99/1/2
f 98/3/2 99/3/2 100/3/2
f 100/3/2 99/3/2 101/3/2
f 100/1/2 101/1/2 102/1/2
f 100/1/2 102/1/2 103/1/2
f 103/1/2 102/1/2 104/1/2
f 105/1/2 106/1/2 107/1/2
f 107/1/2 106/1/2 108/1/2
f 109/3/2 110/3/2 111/3/2
f 109/3/2 111/3/2 112/3/2
f 109/3/2 112/3/2 113/3/2
f 113/3/2 112/3/2 114/3/2
f 113/1/2 114/1/2 115/1/2
f 115/1/2 114/1/2 116/1/2
f 115/3/2 116/3/2 117/3/2
f 115/3/2 117/3/2 118/3/2
f 118/3/2 117/3/2 119/3/2
f 120/1/2 121/1/2 122/1/2
f 122/1/2 121/1/2 123/1/2
f 124/3/2 125/3/2 126/3/2
f 124/3/2 126/3/2 127/3/2
f 127/3/2 126/3/2 128/3/2
f 127/1/2 128/1/2 129/1/2
f 129/1/2 128/1/2 130/1/2
f 129/3/2 130/3/2 131/3/2
f 129/3/2 131/3/2 132/3/2
f 132/3/2 131/3/2 133/3/2
f 134/1/2 135/1/2 136/1/2
f 136/1/2 135/1/2 137/1/2
f 138/2/2 139/2/2 140/2/2
f 140/2/2 139/2/2 141/2/2
f 144/2/3 143/2/3 142/2/3
f 145/2/3 143/2/3 144/2/3
f 148/2/3 147/2/3 146/2/3
f 149/2/3 147/2/3 148/2/3
f 155/1/3 151/1/3 150/1/3
f 156/3/3 152/3/3 151/3/3
f 156/1/3 151/1/3 155/1/3
f 157/1/3 153/1/3 152/1/3
f 157/3/3 152/3/3 156/3/3
f 158/3/3 154/3/3 153/3/3
f 158/1/3 153/1/3 157/1/3
f 159/3/3 154/3/3 158/3/3
f 161/3/3 157/3/3 156/3/3
f 161/3/3 156/3/3 155/3/3
f 161/3/3 159/3/3 158/3/3
f 161/3/3 158/3/3 157/3/3
f 162/3/3 159/3/3 161/3/3
f 163/3/3 159/3/3 162/3/3
f 164/1/3 160/1/3 159/1/3
f 164/3/3 159/3/3 163/3/3
f 165/1/3 160/1/3 164/1/3
f 166/3/3 161/3/3 155/3/3
f 167/1/3 162/1/3 161/1/3
f 167/3/3 161/3/3 166/3/3
f 168/3/3 163/3/3 162/3/3
f 168/1/3 162/1/3 167/1/3
f 169/1/3 164/1/3 163/1/3
f 169/3/3 163/3/3 168/3/3
f 170/1/3 164/1/3 169/1/3
f 175/1/3 172/1/3 171/1/3
f 176/3/3 173/3/3 172/3/3
f 176/1/3 172/1/3 175/1/3
f 177/1/3 174/1/3 173/1/3
f 179/1/3 175/1/3 171/1/3
f 180/3/3 176/3/3 175/3/3
f 180/1/3 175/1/3 179/1/3
f 181/3/3 176/3/3 180/3/3
f 182/3/3 173/3/3 176/3/3
f 182/3/3 176/3/3 181/3/3
f 183/1/3 177/1/3 173/1/3
f 183/3/3 173/3/3 182/3/3
f 183/1/3 178/1/3 177/1/3
f 184/1/3 178/1/3 183/1/3
f 185/1/3 178/1/3 184/1/3
f 186/3/3 181/3/3 180/3/3
f 186/3/3 180/3/3 179/3/3
f 187/1/3 182/1/3 181/1/3
f 187/3/3 181/3/3 186/3/3
f 188/3/3 184/3/3 183/3/3
f 188/1/3 182/1/3 187/1/3
f 188/3/3 183/3/3 182/3/3
f 189/3/3 184/3/3 188/3/3
f 194/1/3 191/1/3 190/1/3
f 195/3/3 192/3/3 191/3/3
f 195/1/3 191/1/3 194/1/3
f 196/1/3 193/1/3 192/1/3
f 196/3/3 192/3/3 195/3/3
f 197/1/3 193/1/3 196/1/3
f 198/1/3 193/1/3 197/1/3
f 200/1/3 194/1/3 190/1/3
f 201/3/3 195/3/3 194/3/3
f 201/1/3 194/1/3 200/1/3
f 201/3/3 196/3/3 195/3/3
f 201/3/3 197/3/3 196/3/3
f 202/3/3 197/3/3 201/3/3
f 203/3/3 197/3/3 202/3/3
f 204/1/3 198/1/3 197/1/3
f 204/3/3 197/3/3 203/3/3
f 204/1/3 199/1/3 198/1/3
f 205/1/3 199/1/3 204/1/3
f 206/1/3 199/1/3 205/1/3
f 207/3/3 202/3/3 201/3/3
f 207/3/3 201/3/3 200/3/3
f 208/1/3 203/1/3 202/1/3
f 208/3/3 202/3/3 207/3/3
f 209/3/3 205/3/3 204/3/3
f 209/1/3 203/1/3 208/1/3
f 209/3/3 204/3/3 203/3/3
f 210/3/3 205/3/3 209/3/3
f 215/1/3 212/1/3 211/1/3
f 216/3/3 213/3/3 212/3/3
f 216/1/3 212/1/3 215/1/3
f 217/3/3 213/3/3 216/3/3
f 218/3/3 213/3/3 217/3/3
f 219/1/3 214/1/3 213/1/3
f 219/3/3 213/3/3 218/3/3
f 220/1/3 214/1/3 219/1/3
f 221/1/3 214/1/3 220/1/3
f 223/1/3 215/1/3 211/1/3
f 224/3/3 216/3/3 215/3/3
f 224/1/3 215/1/3 223/1/3
f 224/3/3 217/3/3 216/3/3
f 225/3/3 217/3/3 224/3/3
f 226/1/3 218/1/3 217/1/3
f 226/3/3 217/3/3 225/3/3
f 227/3/3 220/3/3 219/3/3
f 227/1/3 218/1/3 226/1/3
f 227/3/3 219/3/3 218/3/3
f 228/3/3 220/3/3 227/3/3
f 229/1/3 221/1/3 220/1/3
f 229/3/3 220/3/3 228/3/3
f 229/1/3 222/1/3 221/1/3
f 230/1/3 222/1/3 229/1/3
f 231/1/3 222/1/3 230/1/3
f 232/3/3 225/3/3 224/3/3
f 232/3/3 224/3/3 223/3/3
f 233/1/3 228/1/3 227/1/3
f 233/3/3 225/3/3 232/3/3
f 233/1/3 227/1/3 226/1/3
f 233/1/3 226/1/3 225/1/3
f 234/3/3 229/3/3 228/3/3
f 234/1/3 228/1/3 233/1/3
f 234/3/3 230/3/3 229/3/3
f 235/3/3 230/3/3 234/3/3
f 240/4/3 237/4/3 236/4/3
f 241/4/3 237/4/3 240/4/3
f 242/4/3 239/4/3 238/4/3
f 243/4/3 239/4/3 242/4/3
f 248/4/3 245/4/3 244/4/3
f 249/4/3 245/4/3 248/4/3
f 250/4/3 247/4/3 246/4/3
f 251/4/3 247/4/3 250/4/3
f 256/4/3 253/4/3 252/4/3
f 257/4/3 253/4/3 256/4/3
f 258/4/3 255/4/3 254/4/3
f 259/4/3 255/4/3 258/4/3
f 260/1/4 261/1/4 265/1/4
f 265/1/4 261/1/4 266/1/4
f 263/1/4 264/1/4 267/1/4
f 262/3/4 263/3/4 267/3/4
f 267/1/4 264/1/4 268/1/4
f 262/3/4 267/3/4 271/3/4
f 267/3/4 268/3/4 271/3/4
f 271/3/4 268/3/4 272/3/4
f 272/3/4 268/3/4 273/3/4
f 273/3/4 268/3/4 274/3/4
f 269/1/4 270/1/4 275/1/4
f 275/1/4 270/1/4 276/1/4
f 265/3/4 266/3/4 277/3/4
f 277/3/4 266/3/4 278/3/4
f 271/1/4 272/1/4 279/1/4
f 272/3/4 273/3/4 280/3/4
f 279/1/4 272/1/4 280/1/4
f 273/1/4 274/1/4 281/1/4
f 280/3/4 273/3/4 281/3/4
f 281/1/4 274/1/4 282/1/4
f 285/1/4 286/1/4 288/1/4
f 286/3/4 287/3/4 289/3/4
f 288/1/4 286/1/4 289/1/4
f 283/1/4 284/1/4 292/1/4
f 292/1/4 284/1/4 293/1/4
f 288/3/4 289/3/4 294/3/4
f 289/3/4 287/3/4 295/3/4
f 294/3/4 289/3/4 295/3/4
f 290/1/4 291/1/4 296/1/4
f 296/1/4 291/1/4 297/1/4
f 292/3/4 293/3/4 298/3/4
f 298/3/4 293/3/4 299/3/4
f 288/3/4 294/3/4 300/3/4
f 294/1/4 295/1/4 301/1/4
f 300/3/4 294/3/4 301/3/4
f 295/3/4 287/3/4 302/3/4
f 301/1/4 295/1/4 302/1/4
f 302/3/4 287/3/4 303/3/4
f 306/1/4 307/1/4 310/1/4
f 307/3/4 308/3/4 311/3/4
f 310/1/4 307/1/4 311/1/4
f 308/1/4 309/1/4 312/1/4
f 311/3/4 308/3/4 312/3/4
f 312/1/4 309/1/4 313/1/4
f 304/1/4 305/1/4 316/1/4
f 316/1/4 305/1/4 317/1/4
f 312/3/4 313/3/4 318/3/4
f 310/3/4 311/3/4 318/3/4
f 311/3/4 312/3/4 318/3/4
f 318/3/4 313/3/4 319/3/4
f 314/1/4 315/1/4 320/1/4
f 320/1/4 315/1/4 321/1/4
f 316/3/4 317/3/4 322/3/4
f 322/3/4 317/3/4 323/3/4
f 318/1/4 319/1/4 324/1/4
f 319/3/4 313/3/4 325/3/4
f 324/1/4 319/1/4 325/1/4
f 325/3/4 313/3/4 326/3/4
f 329/3/4 330/3/4 332/3/4
f 332/3/4 330/3/4 333/3/4
f 330/1/4 331/1/4 334/1/4
f 333/3/4 330/3/4 334/3/4
f 334/1/4 331/1/4 335/1/4
f 327/1/4 328/1/4 338/1/4
f 338/1/4 328/1/4 339/1/4
f 329/3/4 332/3/4 340/3/4
f 332/1/4 333/1/4 341/1/4
f 340/3/4 332/3/4 341/3/4
f 334/3/4 335/3/4 342/3/4
f 341/1/4 333/1/4 342/1/4
f 333/3/4 334/3/4 342/3/4
f 342/3/4 335/3/4 343/3/4
f 336/1/4 337/1/4 344/1/4
f 344/1/4 337/1/4 345/1/4
f 338/3/4 339/3/4 346/3/4
f 346/3/4 339/3/4 347/3/4
f 340/1/4 341/1/4 348/1/4
f 341/1/4 342/1/4 348/1/4
f 342/1/4 343/1/4 348/1/4
f 343/3/4 335/3/4 349/3/4
f 348/1/4 343/1/4 349/1/4
f 349/3/4 335/3/4 350/3/4
f 351/2/4 352/2/4 353/2/4
f 353/2/4 352/2/4 354/2/4
f 354/2/4 352/2/4 355/2/4
f 355/2/4 352/2/4 356/2/4
f 356/2/4 352/2/4 357/2/4
f 357/2/4 352/2/4 358/2/4
f 354/4/4 355/4/4 360/4/4
f 360/4/4 355/4/4 361/4/4
f 356/4/4 357/4/4 362/4/4
f 362/4/4 357/4/4 363/4/4
f 360/2/4 361/2/4 365/2/4
f 363/2/4 364/2/4 365/2/4
f 362/2/4 363/2/4 365/2/4
f 361/2/4 362/2/4 365/2/4
f 359/2/4 360/2/4 365/2/4
f 365/2/4 364/2/4 366/2/4
f 371/2/5 368/2/5 367/2/5
f 372/2/5 368/2/5 371/2/5
f 383/2/5 370/2/5 369/2/5
f 384/2/5 370/2/5 383/2/5
f 385/2/5 371/2/5 367/2/5
f 385/1/5 372/1/5 371/1/5
f 385/1/5 373/1/5 372/1/5
f 386/1/5 373/1/5 385/1/5
f 387/3/5 374/3/5 373/3/5
f 387/1/5 373/1/5 386/1/5
f 388/3/5 374/3/5 387/3/5
f 389/1/5 376/1/5 375/1/5
f 390/3/5 377/3/5 376/3/5
f 390/1/5 376/1/5 389/1/5
f 391/3/5 377/3/5 390/3/5
f 392/1/5 379/1/5 378/1/5
f 393/3/5 380/3/5 379/3/5
f 393/1/5 379/1/5 392/1/5
f 394/3/5 380/3/5 393/3/5
f 395/1/5 382/1/5 381/1/5
f 396/3/5 383/3/5 382/3/5
f 396/1/5 382/1/5 395/1/5
f 397/1/5 384/1/5 383/1/5
f 397/3/5 383/3/5 396/3/5
f 398/2/5 370/2/5 384/2/5
f 398/1/5 384/1/5 397/1/5
f 399/2/5 385/2/5 367/2/5
f 399/2/5 386/2/5 385/2/5
f 400/2/5 386/2/5 399/2/5
f 401/2/5 398/2/5 397/2/5
f 402/2/5 370/2/5 398/2/5
f 402/2/5 398/2/5 401/2/5
f 415/4/5 404/4/5 403/4/5
f 415/4/5 414/4/5 413/4/5
f 415/4/5 413/4/5 412/4/5
f 415/4/5 412/4/5 411/4/5
f 415/4/5 411/4/5 410/4/5
f 415/4/5 410/4/5 409/4/5
f 415/4/5 409/4/5 408/4/5
f 415/4/5 408/4/5 407/4/5
f 415/4/5 407/4/5 406/4/5
f 415/4/5 406/4/5 405/4/5
f 415/4/5 405/4/5 404/4/5
f 416/4/5 414/4/5 415/4/5
f 429/4/5 418/4/5 417/4/5
f 429/4/5 428/4/5 427/4/5
f 429/4/5 427/4/5 426/4/5
f 429/4/5 426/4/5 425/4/5
f 429/4/5 425/4/5 424/4/5
f 429/4/5 424/4/5 423/4/5
f 429/4/5 423/4/5 422/4/5
f 429/4/5 422/4/5 421/4/5
f 429/4/5 421/4/5 420/4/5
f 429/4/5 420/4/5 419/4/5
f 429/4/5 419/4/5 418/4/5
f 430/4/5 428/4/5 429/4/5
f 431/4/6 432/4/6 444/4/6
f 442/4/6 443/4/6 444/4/6
f 441/4/6 442/4/6 444/4/6
f 440/4/6 441/4/6 444/4/6
f 439/4/6 440/4/6 444/4/6
f 438/4/6 439/4/6 444/4/6
f 437/4/6 438/4/6 444/4/6
f 436/4/6 437/4/6 444/4/6
f 435/4/6 436/4/6 444/4/6
f 434/4/6 435/4/6 444/4/6
f 433/4/6 434/4/6 444/4/6
f 432/4/6 433/4/6 444/4/6
f 444/4/6 443/4/6 445/4/6
f 446/3/6 447/3/6 462/3/6
f 462/3/6 447/3/6 463/3/6
f 448/1/6 449/1/6 464/1/6
f 464/1/6 449/1/6 465/1/6
f 450/1/6 451/1/6 466/1/6
f 466/1/6 451/1/6 467/1/6
f 452/3/6 453/3/6 468/3/6
f 468/3/6 453/3/6 469/3/6
f 454/1/6 455/1/6 470/1/6
f 470/1/6 455/1/6 471/1/6
f 456/3/6 457/3/6 472/3/6
f 472/3/6 457/3/6 473/3/6
f 458/1/6 459/1/6 474/1/6
f 474/1/6 459/1/6 475/1/6
f 460/3/6 461/3/6 476/3/6
f 476/3/6 461/3/6 477/3/6
f 474/4/6 475/4/6 478/4/6
f 462/4/6 463/4/6 478/4/6
f 476/4/6 477/4/6 478/4/6
f 475/4/6 476/4/6 478/4/6
f 464/4/6 465/4/6 478/4/6
f 473/4/6 474/4/6 478/4/6
f 466/4/6 467/4/6 478/4/6
f 471/4/6 472/4/6 478/4/6
f 468/4/6 469/4/6 478/4/6
f 469/4/6 470/4/6 478/4/6
f 470/4/6 471/4/6 478/4/6
f 467/4/6 468/4/6 478/4/6
f 472/4/6 473/4/6 478/4/6
f 465/4/6 466/4/6 478/4/6
f 463/4/6 464/4/6 478/4/6
f 478/4/6 477/4/6 479/4/6
f 484/1/6 485/1/6 492/1/6
f 492/1/6 485/1/6 493/1/6
f 486/1/6 487/1/6 494/1/6
f 494/1/6 487/1/6 495/1/6
f 488/1/6 489/1/6 496/1/6
f 496/1/6 489/1/6 497/1/6
f 490/1/6 491/1/6 498/1/6
f 498/1/6 491/1/6 499/1/6
f 480/2/6 481/2/6 500/2/6
f 500/2/6 481/2/6 501/2/6
f 482/2/6 483/2/6 502/2/6
f 502/2/6 483/2/6 503/2/6
